<svg width="40" height="41" viewBox="0 0 40 41" fill="none" xmlns="http://www.w3.org/2000/svg">
<circle cx="20" cy="20.4673" r="20" fill="#175CA8"/>
<path d="M19.6526 16.2832L19.0276 16.127H11.6665V26.6304L27.6387 26.5957V16.2832H19.6526Z" fill="#8D6E63"/>
<path d="M13.0554 28.8007H11.6665V26.3701H13.0554V28.8007ZM27.6387 26.3701H26.2498V28.8007H27.6387V26.3701Z" fill="#5D4037"/>
<path d="M22.8994 26.37H26.2501V26.5436H27.639V16.127H22.8994V26.37Z" fill="#6D4C41"/>
<path d="M19.6529 12.134H18.7501H13.0557V26.3701H18.7501H19.6529H26.2501V12.134H19.6529Z" fill="#FFF3E0"/>
<path d="M19.6527 24.634H19.045H11.3193V27.0646H19.045H19.6527H27.986V24.634H19.6527Z" fill="#6D4C41"/>
<path d="M19.6527 24.634H19.045H11.3193V25.6757H19.045H19.6527H23.6457V24.634H19.6527Z" fill="#8D6E63"/>
<path d="M27.9862 24.634H23.3682V25.6757H27.9862V24.634Z" fill="#8D6E63"/>
<path d="M21.736 10.9187H17.5693V12.3076H21.736V10.9187Z" fill="#8D6E63"/>
<path d="M14.4446 28.8008H13.0557V27.4119H14.4446V28.8008ZM26.2501 27.4119H24.8612V28.8008H26.2501V27.4119Z" fill="#6D4C41"/>
<path d="M14.2706 25.2416C14.2706 25.3805 14.1144 25.502 13.9234 25.502C13.7324 25.502 13.5762 25.3805 13.5762 25.2416C13.5762 25.1027 13.7324 24.9812 13.9234 24.9812C14.1144 24.9812 14.2706 25.1027 14.2706 25.2416ZM25.0345 25.2416C25.0345 25.3805 25.1908 25.502 25.3817 25.502C25.5727 25.502 25.7289 25.3805 25.7289 25.2416C25.7289 25.1027 25.5727 24.9812 25.3817 24.9812C25.1908 24.9812 25.0345 25.1027 25.0345 25.2416Z" fill="#CFD8DC"/>
<path d="M20.972 24.1653L20.1734 25.0507C20.1734 25.0507 19.6699 25.3285 19.34 26.075C18.7671 27.325 19.0796 28.7313 19.2359 29.3042C19.3921 29.825 18.6456 30.259 20.156 30.0507C20.6595 29.9813 22.031 29.1479 22.6387 28.1063C23.0553 27.3944 23.0553 26.3354 23.0553 26.3354L23.1769 25.1375L20.972 24.1653Z" fill="#3E2723"/>
<path d="M19.4791 26.509C19.0624 27.4118 19.8089 28.0542 18.8888 29.4604C18.8714 29.4951 18.8193 29.4951 18.8193 29.443C19.045 28.5055 18.9061 27.3076 19.427 26.4917C19.4617 26.4569 19.4964 26.4743 19.4791 26.509ZM22.2916 27.8632C22.2742 27.8458 22.2568 27.8632 22.2568 27.8805C22.3263 28.0715 22.1874 28.2972 22.1179 28.4535C21.9617 28.7312 21.3888 28.9396 21.1457 29.1479C20.7638 29.4778 21.1284 29.6687 20.5034 30.016C20.4686 30.0333 20.2603 30.1375 20.5034 30.0854C21.0589 29.9812 21.8054 29.3042 22.1874 28.818C22.3784 28.575 22.17 28.5924 22.2742 28.3146C22.3263 28.1757 22.3784 27.9847 22.2916 27.8632ZM18.802 28.0542C18.802 28.141 18.7846 28.2278 18.7846 28.3319C18.7846 28.5229 18.7846 28.5229 18.8541 28.3667C19.3749 27.3597 19.3402 26.1965 20.0173 25.3285C20.0346 25.3111 20.052 25.3111 20.0693 25.2937C20.0867 25.2764 20.0867 25.2764 20.0693 25.259C20.1041 25.2069 20.1388 25.1549 20.1909 25.1201C20.2082 25.1028 20.1735 25.0507 20.1561 25.0854C20.1041 25.1549 20.052 25.2069 19.9999 25.2764C19.6006 25.3979 19.3228 25.884 19.0624 26.1792C19.045 26.1965 19.0624 26.2312 19.0971 26.2139C19.1492 26.1618 19.2013 26.1271 19.2534 26.075C19.1666 26.2312 18.9061 26.6653 18.8714 26.7347C18.5763 27.325 18.7325 28.1757 18.5068 28.8354C18.5068 28.8528 18.5242 28.8701 18.5416 28.8528C18.6978 28.6097 18.7673 28.3146 18.8193 28.0021L18.802 28.0542ZM22.4131 28.193C22.2395 28.8528 21.545 29.0785 21.3193 29.825C21.3193 29.8424 21.3367 29.8597 21.3367 29.8424C21.7186 29.3215 22.2395 29.1826 22.5346 28.4882C22.6561 28.2104 22.8124 27.8458 22.8645 27.5333C22.9166 27.2729 22.8818 26.8562 22.8124 26.5785C22.8124 26.5611 22.7777 26.5611 22.7777 26.5785C22.8124 27.1514 22.552 27.6896 22.4131 28.193Z" fill="#3E2723"/>
<path d="M22.118 20.2243C22.743 18.8354 25.9375 11.6479 27.5521 12.3597C29.1146 13.0542 25.9201 20.2417 25.2951 21.6306C24.6701 23.0195 23.4549 23.8354 22.5868 23.4361C21.684 23.0542 21.493 21.6132 22.118 20.2243Z" fill="#FF9800"/>
<path d="M24.6701 23.0195L24.7048 22.9327C24.7569 22.8285 24.7048 22.707 24.6006 22.6549L21.8229 21.4223C21.7187 21.3702 21.5972 21.4223 21.5451 21.5265L21.5104 21.6133C21.4583 21.7174 21.5104 21.8216 21.5972 21.8737C21.5798 21.9084 21.5624 21.9605 21.5104 22.0646C21.4756 22.1341 21.5624 22.2556 21.6145 22.3077C21.7013 22.4119 21.7187 22.5508 21.6666 22.6549C21.6319 22.7244 21.5451 22.7765 21.4409 22.7938C21.2499 22.8285 21.0937 22.9501 21.0069 23.1237C20.7291 23.6271 20.1562 24.6341 19.8784 25.2938C19.9305 25.1549 20.6944 25.3633 21.5624 25.7626C22.4305 26.1445 23.1076 26.5785 23.0381 26.7001C23.3333 26.0403 23.6979 24.9466 23.8888 24.4084C23.9409 24.2348 23.9409 24.0438 23.8368 23.8702C23.7847 23.7834 23.7499 23.6792 23.7847 23.6098C23.8368 23.4883 23.9583 23.4188 24.0972 23.4188C24.184 23.4188 24.3055 23.4015 24.3402 23.332C24.3923 23.2278 24.4097 23.1758 24.427 23.141C24.5138 23.1584 24.618 23.1237 24.6701 23.0195Z" fill="#B0BEC5"/>
</svg>
