<svg width="40" height="41" viewBox="0 0 40 41" fill="none" xmlns="http://www.w3.org/2000/svg">
<circle cx="20" cy="20.4673" r="20" fill="#175CA8"/>
<g clip-path="url(#clip0_410_18084)">
<path d="M22.6886 12.1586V12.2058C22.6886 12.2484 22.6542 12.2828 22.6115 12.2828H17.3881C17.3455 12.2828 17.3105 12.2484 17.3105 12.2058V12.1586C17.3105 12.1159 17.3455 12.0815 17.3881 12.0815H22.6115C22.6542 12.0815 22.6886 12.1159 22.6886 12.1586Z" fill="#D66943"/>
<path d="M20.9964 24.7488V25.1981C20.9964 25.4143 20.8202 25.5904 20.6041 25.5904H19.3953C19.1791 25.5904 19.0029 25.4143 19.0029 25.1981V24.7488H20.9964Z" fill="#FFCC73"/>
<path d="M21.8401 24.8653C21.9027 24.9393 21.9289 25.0363 21.912 25.1319L21.706 26.3165C21.6788 26.4737 21.5433 26.5877 21.3841 26.5877H18.6157C18.4565 26.5877 18.321 26.4737 18.2938 26.3165L18.0873 25.1319C18.0709 25.0363 18.0971 24.9393 18.1592 24.8653C18.2219 24.7914 18.3128 24.7488 18.4098 24.7488H18.5408V25.1981C18.5408 25.6695 18.9243 26.0526 19.3952 26.0526H20.604C21.0754 26.0526 21.4585 25.6695 21.4585 25.1981V24.7488H21.59C21.687 24.7488 21.7779 24.7914 21.8401 24.8653Z" fill="#FFCC73"/>
<path d="M28.4036 28.5857H26.9468V28.8527H28.4036V28.5857Z" fill="#D66943"/>
<path d="M13.0525 28.5857H11.5957V28.8527H13.0525V28.5857Z" fill="#D66943"/>
<path d="M30.649 15.8559V27.0761C30.649 27.6538 30.1791 28.1237 29.6019 28.1237H10.3986C9.82094 28.1237 9.35107 27.6538 9.35107 27.0761V15.8559C9.35107 15.2782 9.82094 14.8088 10.3986 14.8088H10.5589V23.3105C10.5589 24.8228 11.7887 26.0527 13.301 26.0527H17.7788L17.8384 26.3957C17.9041 26.7747 18.2312 27.0499 18.6159 27.0499H21.3842C21.7688 27.0499 22.0959 26.7747 22.1617 26.3957L22.2212 26.0527H26.6996C28.2113 26.0527 29.4417 24.8228 29.4417 23.3105V14.8088H29.6019C30.1791 14.8088 30.649 15.2782 30.649 15.8559Z" fill="#D66943"/>
<path d="M28.9795 14.1941V23.3105C28.9795 24.5681 27.9566 25.5905 26.6995 25.5905H22.3018L22.3676 25.211C22.4076 24.9809 22.3444 24.7462 22.194 24.5675C22.044 24.3894 21.8237 24.2867 21.5901 24.2867H18.4099C18.1763 24.2867 17.956 24.3894 17.806 24.5675C17.6556 24.7462 17.5924 24.9809 17.6325 25.211L17.6982 25.5905H13.301C12.0434 25.5905 11.021 24.5681 11.021 23.3105V14.1941H28.9795Z" fill="#F97946"/>
<path d="M31.1109 15.8559V27.0761C31.1109 27.9085 30.4336 28.5858 29.6017 28.5858H28.8658V29.315H26.4847V28.5858H13.5149V29.315H11.1337V28.5858H10.3984C9.56599 28.5858 8.88867 27.9085 8.88867 27.0761V15.8559C8.88867 15.0235 9.56599 14.3466 10.3984 14.3466H10.5586V13.732H16.3341V12.6962C16.3341 12.3547 16.5657 12.0667 16.8799 11.9788C16.9544 11.7698 17.1536 11.6194 17.3883 11.6194H22.6118C22.8459 11.6194 23.0457 11.7698 23.1196 11.9788C23.4339 12.0667 23.6655 12.3547 23.6655 12.6962V13.732H29.4415V14.3466H29.6017C30.4336 14.3466 31.1109 15.0235 31.1109 15.8559ZM30.6487 27.0761V15.8559C30.6487 15.2782 30.1789 14.8088 29.6017 14.8088H29.4415V23.3105C29.4415 24.8228 28.2111 26.0527 26.6993 26.0527H22.221L22.1614 26.3957C22.0957 26.7747 21.7686 27.0499 21.384 27.0499H18.6156C18.231 27.0499 17.9039 26.7747 17.8382 26.3957L17.7786 26.0527H13.3008C11.7885 26.0527 10.5586 24.8228 10.5586 23.3105V14.8088H10.3984C9.8207 14.8088 9.35083 15.2782 9.35083 15.8559V27.0761C9.35083 27.6538 9.8207 28.1237 10.3984 28.1237H29.6017C30.1789 28.1237 30.6487 27.6538 30.6487 27.0761ZM28.9793 23.3105V14.1941H11.0208V23.3105C11.0208 24.5681 12.0432 25.5905 13.3008 25.5905H17.698L17.6322 25.211C17.5922 24.981 17.6553 24.7463 17.8058 24.5676C17.9557 24.3894 18.176 24.2867 18.4097 24.2867H21.5899C21.8235 24.2867 22.0438 24.3894 22.1938 24.5676C22.3442 24.7463 22.4074 24.981 22.3673 25.211L22.3016 25.5905H26.6993C27.9564 25.5905 28.9793 24.5681 28.9793 23.3105ZM28.4037 28.8528V28.5858H26.9468V28.8528H28.4037ZM23.2033 13.732V12.6962C23.2033 12.6012 23.1561 12.517 23.0837 12.4657C22.9918 12.632 22.8146 12.745 22.6118 12.745H17.3883C17.185 12.745 17.0078 12.632 16.9159 12.4657C16.8435 12.517 16.7962 12.6012 16.7962 12.6962V13.732H23.2033ZM22.6888 12.2058V12.1586C22.6888 12.116 22.6544 12.0815 22.6118 12.0815H17.3883C17.3457 12.0815 17.3108 12.116 17.3108 12.1586V12.2058C17.3108 12.2484 17.3457 12.2828 17.3883 12.2828H22.6118C22.6544 12.2828 22.6888 12.2484 22.6888 12.2058ZM21.9118 25.1319C21.9288 25.0364 21.9026 24.9394 21.84 24.8654C21.7778 24.7915 21.6869 24.7489 21.5899 24.7489H21.4584V25.1982C21.4584 25.6696 21.0753 26.0527 20.6039 26.0527H19.3951C18.9242 26.0527 18.5406 25.6696 18.5406 25.1982V24.7489H18.4097C18.3126 24.7489 18.2217 24.7915 18.1591 24.8654C18.097 24.9394 18.0708 25.0364 18.0872 25.1319L18.2936 26.3166C18.3209 26.4737 18.4564 26.5877 18.6156 26.5877H21.384C21.5431 26.5877 21.6787 26.4737 21.7059 26.3166L21.9118 25.1319ZM20.9963 25.1982V24.7489H19.0028V25.1982C19.0028 25.4144 19.1789 25.5905 19.3951 25.5905H20.6039C20.8201 25.5905 20.9963 25.4144 20.9963 25.1982ZM13.0527 28.8528V28.5858H11.5959V28.8528H13.0527Z" fill="black"/>
</g>
<defs>
<clipPath id="clip0_410_18084">
<rect width="22.2222" height="22.2222" fill="white" transform="translate(8.88867 9.3562)"/>
</clipPath>
</defs>
</svg>
