<svg width="40" height="41" viewBox="0 0 40 41" fill="none" xmlns="http://www.w3.org/2000/svg">
<circle cx="20" cy="20.4673" r="20" fill="#EF7F1A"/>
<g clip-path="url(#clip0_410_18045)">
<path d="M16.9348 18.9348V21.2337L14.0782 22.8207C13.744 23.0064 13.3232 22.9044 13.1111 22.5862C12.8927 22.2586 12.9717 21.8171 13.2901 21.5856L16.9348 18.9348Z" fill="#FFC855"/>
<path d="M14.0783 22.8207L16.9349 21.2337V19.917L13.7889 22.205C13.5704 22.3639 13.4679 22.6216 13.4936 22.8735C13.6819 22.9353 13.8929 22.9237 14.0783 22.8207Z" fill="#FFB44B"/>
<path d="M23.0649 18.9348V21.2337L25.9215 22.8207C26.2558 23.0064 26.6766 22.9044 26.8886 22.5862C27.107 22.2586 27.028 21.8171 26.7096 21.5856L23.0649 18.9348Z" fill="#FFC855"/>
<path d="M25.9215 22.8207L23.0649 21.2337V19.917L26.2109 22.205C26.4294 22.3639 26.5319 22.6216 26.5062 22.8735C26.3179 22.9353 26.1069 22.9237 25.9215 22.8207Z" fill="#FFB44B"/>
<path d="M18.5952 31.5784C19.1593 31.5784 19.6166 31.1211 19.6166 30.557V25.8313H16.9346L17.5827 30.692C17.6503 31.1994 18.0832 31.5784 18.5952 31.5784Z" fill="#FFC855"/>
<path d="M18.7321 30.692L18.084 25.8313H16.9346L17.5827 30.692C17.6503 31.1994 18.0832 31.5784 18.5951 31.5784C18.8095 31.5784 19.008 31.5118 19.1722 31.399C18.9391 31.2403 18.7718 30.9896 18.7321 30.692Z" fill="#FFB44B"/>
<path d="M21.4042 31.5784C20.8401 31.5784 20.3828 31.1211 20.3828 30.557V25.8313H23.0648L22.4167 30.692C22.349 31.1994 21.9162 31.5784 21.4042 31.5784Z" fill="#FFC855"/>
<path d="M21.5322 30.557V25.8313H20.3828V30.557C20.3828 31.1211 20.8401 31.5784 21.4043 31.5784C21.6159 31.5784 21.8122 31.5109 21.9766 31.3989C21.7085 31.2149 21.5322 30.9068 21.5322 30.557Z" fill="#FFB44B"/>
<path d="M23.065 18.1685H16.9347L15.2209 26.0517C15.1171 26.5293 15.4809 26.9807 15.9697 26.9807H19.9998H24.0299C24.5187 26.9807 24.8825 26.5293 24.7787 26.0517L23.065 18.1685Z" fill="#FF6472"/>
<path d="M18.4667 26.0517L19.8382 18.1685H16.9347L15.2209 26.0517C15.1171 26.5293 15.4809 26.9807 15.9697 26.9807H19.0659C18.6748 26.9807 18.3836 26.5293 18.4667 26.0517Z" fill="#DC5869"/>
<path d="M19.9997 20.4672C21.0577 20.4672 21.9154 19.7811 21.9154 18.9347C21.9154 18.0882 21.0577 17.4021 19.9997 17.4021C18.9417 17.4021 18.084 18.0882 18.084 18.9347C18.084 19.7811 18.9417 20.4672 19.9997 20.4672Z" fill="#E69B4B"/>
<path d="M15.4022 13.9539C15.4022 13.9539 13.9974 14.4647 12.7203 17.019L10.4214 15.1033C10.4214 15.1033 11.8262 12.8044 15.4022 12.8044C18.9783 12.8044 15.4022 13.9539 15.4022 13.9539Z" fill="#64463C"/>
<path d="M11.2075 15.7585L12.7201 17.0191C13.9973 14.4648 15.4021 13.9539 15.4021 13.9539C15.4021 13.9539 15.9322 13.7833 16.3802 13.5736C16.2948 13.5721 16.2071 13.5708 16.1117 13.5708C13.007 13.5708 11.5405 15.3018 11.2075 15.7585Z" fill="#553732"/>
<path d="M24.5977 13.9539C24.5977 13.9539 26.0025 14.4647 27.2796 17.019L29.5785 15.1033C29.5785 15.1033 28.1737 12.8044 24.5977 12.8044C21.0216 12.8044 24.5977 13.9539 24.5977 13.9539Z" fill="#64463C"/>
<path d="M28.7923 15.7585L27.2797 17.0191C26.0025 14.4648 24.5977 13.9539 24.5977 13.9539C24.5977 13.9539 24.0676 13.7833 23.6196 13.5736C23.705 13.5721 23.7928 13.5708 23.8882 13.5708C26.9929 13.5708 28.4593 15.3018 28.7923 15.7585Z" fill="#553732"/>
<path d="M19.9996 19.3178C23.1736 19.3178 25.7467 17.1736 25.7467 14.5285C25.7467 11.8835 23.1736 9.73926 19.9996 9.73926C16.8255 9.73926 14.2524 11.8835 14.2524 14.5285C14.2524 17.1736 16.8255 19.3178 19.9996 19.3178Z" fill="#FFC855"/>
<path d="M17.5093 15.8697C17.1919 15.8697 16.9346 15.6124 16.9346 15.295V14.9119C16.9346 14.5944 17.1919 14.3372 17.5093 14.3372C17.8267 14.3372 18.084 14.5945 18.084 14.9119V15.295C18.084 15.6124 17.8266 15.8697 17.5093 15.8697Z" fill="#6E4141"/>
<path d="M22.4902 15.8697C22.1728 15.8697 21.9155 15.6124 21.9155 15.295V14.9119C21.9155 14.5944 22.1729 14.3372 22.4902 14.3372C22.8076 14.3372 23.0649 14.5945 23.0649 14.9119V15.295C23.065 15.6124 22.8076 15.8697 22.4902 15.8697Z" fill="#6E4141"/>
<path d="M19.9851 17.7853C19.3329 17.7853 18.7219 17.6285 18.2647 17.3441C18.0851 17.2326 18.0301 16.9961 18.1419 16.8165C18.2538 16.6365 18.4902 16.5819 18.6695 16.6938C19.0018 16.9003 19.4815 17.0189 19.9851 17.0189C20.4888 17.0189 20.9684 16.9003 21.3007 16.6938C21.4795 16.5819 21.7164 16.6365 21.8283 16.8165C21.9402 16.9961 21.8852 17.2326 21.7056 17.3441C21.2483 17.6285 20.6373 17.7853 19.9851 17.7853Z" fill="#E69B4B"/>
<path d="M16.1682 14.5285C16.1682 12.156 18.2403 10.1918 20.9574 9.81105C20.6453 9.7673 20.3267 9.73926 19.9996 9.73926C16.8255 9.73926 14.2524 11.8834 14.2524 14.5285C14.2524 17.1736 16.8255 19.3178 19.9996 19.3178C20.3267 19.3178 20.6453 19.2897 20.9574 19.2459C18.2403 18.8653 16.1682 16.901 16.1682 14.5285Z" fill="#FFB44B"/>
<path d="M19.9996 9.85425C19.9996 12.189 17.4802 14.0993 14.2657 14.3106C14.2618 14.3833 14.2524 14.4549 14.2524 14.5285C14.2524 14.7156 14.2685 14.8993 14.2936 15.0808C16.8111 14.924 18.9234 13.8229 19.9996 12.252C21.0758 13.8229 23.1881 14.924 25.7056 15.0808C25.7306 14.8993 25.7467 14.7156 25.7467 14.5285C25.7467 14.4549 25.7374 14.3833 25.7335 14.3106C22.5189 14.0994 19.9996 12.1891 19.9996 9.85425Z" fill="#FFB44B"/>
<path d="M20.8428 9.41896V9.41788C20.8313 9.41636 20.8196 9.41562 20.8081 9.41419C20.704 9.40108 20.5997 9.3888 20.4941 9.38077C20.331 9.3664 20.1668 9.3562 19.9999 9.3562C19.833 9.3562 19.6688 9.3664 19.5057 9.38072C19.4 9.38875 19.2958 9.40108 19.1916 9.41414C19.1801 9.41558 19.1684 9.41636 19.1569 9.41783V9.41892C16.4842 9.77039 14.3377 11.7597 13.8052 14.3335C17.2374 14.2848 19.9999 12.3001 19.9999 9.85438C19.9999 12.3001 22.7624 14.2848 26.1946 14.3335C25.662 11.7597 23.5156 9.77044 20.8428 9.41896Z" fill="#64463C"/>
<path d="M22.9115 26.9807H20.3828V27.747H22.8094L22.9115 26.9807Z" fill="#FFB44B"/>
<path d="M17.0879 26.9807H19.6166V27.747H17.1901L17.0879 26.9807Z" fill="#FFB44B"/>
<path d="M19.9997 26.2145C21.0577 26.2145 21.9154 25.3568 21.9154 24.2988C21.9154 23.2407 21.0577 22.3831 19.9997 22.3831C18.9417 22.3831 18.084 23.2407 18.084 24.2988C18.084 25.3568 18.9417 26.2145 19.9997 26.2145Z" fill="#DC5869"/>
<path d="M19.9997 25.4481C21.0577 25.4481 21.9154 24.5904 21.9154 23.5324C21.9154 22.4744 21.0577 21.6167 19.9997 21.6167C18.9417 21.6167 18.084 22.4744 18.084 23.5324C18.084 24.5904 18.9417 25.4481 19.9997 25.4481Z" fill="#FFC855"/>
<path d="M19.4251 24.4904C19.3271 24.4904 19.229 24.453 19.1542 24.3782C19.0046 24.2285 19.0046 23.986 19.1542 23.8364L20.3037 22.6869C20.4533 22.5373 20.6958 22.5373 20.8455 22.6869C20.9951 22.8366 20.9951 23.0791 20.8455 23.2287L19.696 24.3782C19.6212 24.453 19.5231 24.4904 19.4251 24.4904Z" fill="#FF6472"/>
<path d="M20.5745 24.4904C20.4765 24.4904 20.3785 24.453 20.3037 24.3782L19.1542 23.2287C19.0046 23.0791 19.0046 22.8366 19.1542 22.6869C19.3039 22.5373 19.5464 22.5373 19.696 22.6869L20.8455 23.8364C20.9951 23.986 20.9951 24.2285 20.8455 24.3782C20.7706 24.453 20.6726 24.4904 20.5745 24.4904Z" fill="#FF6472"/>
<path d="M19.5057 9.38072C19.4 9.38875 19.2958 9.40108 19.1916 9.41414C19.1801 9.41562 19.1684 9.41636 19.1569 9.41788V9.41892C16.4842 9.77035 14.3377 11.7597 13.8052 14.3335C14.9384 14.3174 15.9954 14.0868 16.9072 13.7018C16.9786 11.0105 19.644 9.3562 19.9999 9.3562C19.833 9.3562 19.6688 9.36636 19.5057 9.38072Z" fill="#553732"/>
</g>
<defs>
<clipPath id="clip0_410_18045">
<rect width="22.2222" height="22.2222" fill="white" transform="translate(8.88867 9.3562)"/>
</clipPath>
</defs>
</svg>
