<svg width="40" height="41" viewBox="0 0 40 41" fill="none" xmlns="http://www.w3.org/2000/svg">
<circle cx="20" cy="20.4673" r="20" fill="#175CA8"/>
<path d="M11.4517 20.8215V29.9242C11.4517 30.2315 11.7038 30.4832 12.0124 30.4832H27.9894C28.2964 30.4832 28.5485 30.2315 28.5485 29.9242V20.8215H11.4517Z" fill="#4D4D4D"/>
<path d="M29.0848 19.4385C29.0848 19.729 28.8466 19.9676 28.5561 19.9676H11.4445C11.1542 19.9676 10.915 19.729 10.915 19.4385V16.0295C10.915 15.7382 11.1542 15.5 11.4445 15.5H28.5561C28.8465 15.5 29.0848 15.7383 29.0848 16.0295V19.4385Z" fill="#4D4D4D"/>
<path d="M21.6458 20.8215H18.354V30.4832H21.6458V20.8215Z" fill="#FC6E51"/>
<path d="M21.6458 15.5H18.354V19.9676H21.6458V15.5Z" fill="#FC6E51"/>
<path d="M25.6828 12.1074C26.1802 12.0639 26.5949 12.1656 26.9228 12.3578C26.6106 11.7805 25.9663 11.3592 25.0404 11.4392C22.7077 11.6413 20.6323 14.7262 20.6323 14.7262C20.6323 14.7262 21.0462 14.8031 21.6548 14.8836C22.3581 13.9989 23.9501 12.2566 25.6828 12.1074Z" fill="#F4F8F8"/>
<path d="M26.9227 12.3579C27.3956 13.236 27.1017 14.4767 25.8601 14.8775C24.7959 15.221 22.8484 15.0431 21.6546 14.8836C21.4111 15.19 21.4111 15.19 21.4111 15.19C21.4111 15.19 23.7247 16.0035 25.8505 15.7987C27.5687 15.6323 28.4016 13.3542 26.9227 12.3579Z" fill="#F4F8F8"/>
<path d="M14.3171 12.1074C13.8207 12.0639 13.405 12.1656 13.0781 12.3578C13.3903 11.7805 14.0344 11.3592 14.9604 11.4392C17.2923 11.6413 19.3694 14.7262 19.3694 14.7262C19.3694 14.7262 18.9546 14.8031 18.3461 14.8836C17.6419 13.9989 16.0508 12.2566 14.3171 12.1074Z" fill="#F4F8F8"/>
<path d="M13.0784 12.3579C12.6054 13.236 12.8984 14.4767 14.1409 14.8775C15.2051 15.221 17.1527 15.0431 18.3464 14.8836C18.589 15.19 18.589 15.19 18.589 15.19C18.589 15.19 16.2763 16.0035 14.1496 15.7987C12.4323 15.6323 11.5986 13.3542 13.0784 12.3579Z" fill="#F4F8F8"/>
<path d="M20.4409 14.2872C20.4409 14.2872 20.9696 11.111 23.8892 10.4512L23.4049 10.9594L24.3109 11.1489C24.3109 11.1489 22.0555 11.6393 21.1895 14.2685L20.4409 14.2872Z" fill="#F4F8F8"/>
<path d="M19.5478 14.2872C19.5478 14.2872 19.0209 11.111 16.1013 10.4512L16.5838 10.9594L15.6787 11.1489C15.6787 11.1489 17.935 11.6393 18.8001 14.2685L19.5478 14.2872Z" fill="#F4F8F8"/>
<path d="M21.9309 14.5679C21.9309 14.2262 21.6518 13.9463 21.3101 13.9463H18.6896C18.3488 13.9463 18.0688 14.2262 18.0688 14.5679V14.8874C18.0688 15.2291 18.3488 15.509 18.6896 15.509H21.3101C21.6518 15.509 21.9309 15.2291 21.9309 14.8874V14.5679Z" fill="#F4F8F8"/>
<path d="M21.1354 13.3938C21.1354 13.1938 20.971 13.0291 20.7703 13.0291H19.2304C19.0305 13.0291 18.8652 13.1938 18.8652 13.3938V13.582C18.8652 13.782 19.0304 13.9463 19.2304 13.9463H20.7703C20.9711 13.9463 21.1354 13.782 21.1354 13.582V13.3938Z" fill="#F4F8F8"/>
</svg>
