<svg width="110" height="110" viewBox="0 0 110 110" fill="none" xmlns="http://www.w3.org/2000/svg">
<path d="M20.085 71.3887L20.4066 68.8352C20.4067 68.8351 20.4067 68.8349 20.4067 68.8347C20.5022 68.0249 20.5156 67.378 20.4477 66.9013C20.3782 66.4142 20.2326 66.1649 20.0703 66.0615C19.7732 65.8745 19.5921 65.8842 19.4626 65.9634C19.302 66.0616 19.1249 66.3178 18.9715 66.8384C18.6691 67.8644 18.523 69.6817 18.523 72.4027C18.523 82.9521 21.9093 91.2761 29.3309 98.8299C34.6444 104.238 40.7817 107.748 47.1645 109.113C49.3613 109.567 52.4476 109.779 55.5199 109.747C58.5933 109.714 61.6294 109.436 63.727 108.918C76.3134 105.797 87.1268 94.6671 90.4535 81.5155C90.9621 79.444 91.2832 76.156 91.3635 73.1986C91.4036 71.7216 91.3834 70.3344 91.2978 69.2299C91.2549 68.6773 91.1961 68.1999 91.1214 67.8195C91.0456 67.4333 90.9583 67.1732 90.8716 67.0334C90.6296 66.6647 90.4189 66.5332 90.2788 66.5081C90.1614 66.4871 90.0285 66.5314 89.8922 66.7184C89.7528 66.9099 89.6355 67.2247 89.5832 67.6481C89.5314 68.0677 89.5457 68.5778 89.6541 69.1452L89.6541 69.1452L89.6548 69.1494L90.0411 71.3772L90.0919 71.6699H89.7948H82.4559H75.1814H74.9587L74.9331 71.4486L74.1608 64.767C74.1607 64.7668 74.1607 64.7665 74.1607 64.7663C73.9358 62.9352 73.679 61.2042 73.4388 59.8919C73.3185 59.2351 73.2031 58.687 73.0987 58.285C73.0464 58.0835 72.998 57.9234 72.9546 57.8065C72.9329 57.7481 72.9139 57.7042 72.8979 57.6731C72.8842 57.6464 72.8766 57.6368 72.8767 57.6367C72.6335 57.3899 72.4254 57.3125 72.2715 57.3132C72.1217 57.3138 71.9713 57.3885 71.838 57.5598C71.5632 57.9127 71.4122 58.6264 71.6251 59.4968C71.7594 59.9777 71.9218 60.9931 72.0818 62.2226C72.2432 63.463 72.4045 64.9404 72.5335 66.3519L72.5335 66.3524L72.9841 71.3977L73.0085 71.6699H72.7351H64.495H56.3192H56.0771L56.0694 71.4279L55.8762 65.3998L55.8762 65.3983C55.8117 62.9377 55.7151 61.4352 55.5428 60.5499C55.456 60.1047 55.3556 59.8475 55.2533 59.7052C55.165 59.5825 55.0792 59.5481 54.9673 59.5481C54.8555 59.5481 54.7697 59.5825 54.6814 59.7052C54.5791 59.8475 54.4786 60.1047 54.3919 60.5499C54.2196 61.4352 54.123 62.9377 54.0585 65.3983L54.0584 65.3998L53.8653 71.4279L53.8576 71.6699H53.6154H45.4397H37.1996H36.9226L36.9509 71.3944L37.4012 67.0075C37.5951 64.5091 38.0465 61.1625 38.3043 59.4573C38.4006 58.8198 38.468 58.3103 38.5025 57.9041C38.5373 57.495 38.5371 57.2056 38.5056 57.0022C38.4742 56.7999 38.4171 56.7165 38.3671 56.676C38.3145 56.6335 38.2222 56.5996 38.0364 56.5996C37.7619 56.5996 37.5673 56.663 37.3948 56.8362C37.2079 57.024 37.0252 57.3624 36.8436 57.9693C36.4809 59.1811 36.1611 61.3193 35.7097 65.0275C35.7097 65.028 35.7096 65.0284 35.7096 65.0289L35.0018 71.4473L34.9772 71.6699H34.7533H27.5432L20.333 71.6699H20.0496L20.085 71.3887ZM56.0049 92.3873V92.1373H56.2549H62.95H69.7095H70.0819L69.9408 92.482L68.654 95.6255C68.6539 95.6257 68.6538 95.6259 68.6537 95.6261C67.7099 97.9777 66.2803 100.325 64.6816 102.307C63.0848 104.287 61.3068 105.919 59.6587 106.825C58.882 107.253 58.1375 107.632 57.5701 107.904C57.2865 108.04 57.0456 108.15 56.866 108.227C56.7766 108.265 56.6998 108.296 56.6395 108.318C56.6095 108.329 56.5806 108.339 56.5546 108.346C56.5362 108.351 56.4938 108.363 56.448 108.363C56.3714 108.363 56.3158 108.329 56.2853 108.303C56.2562 108.279 56.2391 108.253 56.2309 108.239C56.2144 108.212 56.2063 108.187 56.2031 108.177C56.1957 108.153 56.1913 108.129 56.1886 108.113C56.1826 108.077 56.1772 108.029 56.1723 107.975C56.1621 107.865 56.1516 107.706 56.141 107.506C56.1197 107.103 56.0975 106.524 56.0774 105.81C56.0371 104.383 56.0049 102.415 56.0049 100.25V92.3873ZM41.2185 95.4341L41.2175 95.4316L39.9943 92.483L39.8509 92.1373H40.2252H46.9203H53.6798H53.9298V92.3873V100.25V108.113V108.479L53.5887 108.346L51.9149 107.69L51.9118 107.689C50.9251 107.287 49.2983 106.36 48.3172 105.628C47.1571 104.784 45.8189 103.25 44.5583 101.433C43.2942 99.6099 42.0948 97.4821 41.2185 95.4341ZM40.3117 104.801L40.3088 104.799C37.1954 103.281 34.148 101.169 31.5538 98.6606L31.553 98.6599C30.0107 97.1554 28.8444 96.0139 28.0758 95.152C27.6917 94.7214 27.3983 94.3511 27.2057 94.0333C27.0177 93.723 26.9007 93.4229 26.9327 93.145C26.9678 92.839 27.1713 92.6334 27.4465 92.5007C27.7131 92.3721 28.0784 92.2943 28.5215 92.2433C29.4113 92.1409 30.7201 92.1373 32.4357 92.1373C34.5268 92.1373 35.9918 92.1861 36.9369 92.3199C37.4065 92.3864 37.7722 92.4769 38.0265 92.6069C38.2869 92.74 38.4796 92.944 38.4796 93.2391C38.4796 93.3598 38.5251 93.5778 38.629 93.8948C38.7302 94.2037 38.8786 94.5831 39.0656 95.0154C39.4393 95.8796 39.9611 96.9421 40.5506 98.0524C41.7308 100.275 43.1707 102.667 44.2198 104.027C44.8027 104.752 45.2758 105.416 45.5727 105.902C45.7194 106.143 45.8308 106.353 45.888 106.51C45.914 106.582 45.9422 106.677 45.9342 106.77C45.9299 106.821 45.9125 106.897 45.8498 106.962C45.7825 107.032 45.6982 107.052 45.6328 107.052C45.5849 107.052 45.5358 107.04 45.5082 107.033C45.4723 107.023 45.43 107.011 45.3832 106.995C45.2891 106.964 45.1658 106.919 45.0184 106.863C44.723 106.75 44.3218 106.587 43.8456 106.386C42.8929 105.983 41.6344 105.425 40.3117 104.801ZM74.1604 80.4344L74.1607 80.4322L74.9332 74.011L74.9597 73.7908H75.1814H82.5203H89.7948H90.0866L90.0418 74.0791L89.6556 76.569L89.6556 76.569L89.6548 76.5739C89.331 78.4194 88.7654 80.7707 88.1521 82.9142C87.5407 85.0513 86.8758 87.004 86.349 88.0434C86.127 88.4952 85.9357 88.8718 85.675 89.16C85.4028 89.461 85.0666 89.6548 84.5776 89.7793C84.0988 89.9011 83.464 89.9588 82.5848 89.9875C81.7035 90.0163 80.5575 90.0163 79.0488 90.0163H79.044H79.0401C77.5146 90.0163 76.3611 90.0163 75.4978 89.9937C74.6396 89.9712 74.0448 89.9263 73.6491 89.8289C73.4498 89.7799 73.2804 89.7129 73.1496 89.6133C73.0113 89.508 72.9259 89.3734 72.889 89.215C72.8543 89.0663 72.8654 88.9098 72.8908 88.7591C72.9162 88.6088 72.9601 88.4412 73.0074 88.2649C73.1985 87.4182 73.7753 83.8973 74.1604 80.4344ZM56.0049 74.0408V73.7908H56.2549H64.5594H72.8639H73.1408L73.1126 74.0663L72.7909 77.2094C72.6291 79.0855 72.2419 81.9414 71.8474 84.4164C71.65 85.6549 71.4502 86.8008 71.2754 87.6834C71.188 88.1244 71.1064 88.5019 71.034 88.7934C70.9649 89.0717 70.8973 89.3011 70.832 89.4241C70.7843 89.5156 70.6999 89.5609 70.6609 89.5802C70.6088 89.6059 70.5482 89.6264 70.4863 89.6435C70.3612 89.6782 70.1947 89.7092 69.9973 89.7374C69.6002 89.7941 69.0473 89.8437 68.381 89.8848C67.0467 89.9671 65.2388 90.0163 63.2719 90.0163H56.2549H56.0049V89.7663L56.0049 81.9036V74.0408ZM37.0787 74.3818L37.0649 74.1247L37.3223 74.1185L45.4981 73.9219L53.6738 73.7254L53.9298 73.7192V73.9753V81.9036L53.9298 89.8319V90.0888L53.673 90.0818L46.4629 89.8852L39.2528 89.6886L39.0528 89.6832L39.0143 89.4869L38.2423 85.5583C38.2423 85.558 38.2422 85.5576 38.2421 85.5572C37.7895 83.385 37.3369 79.9661 37.2717 77.9829C37.2716 77.9821 37.2716 77.9812 37.2716 77.9804L37.0787 74.3818ZM20.0216 74.0791L19.9769 73.7908H20.2687H27.4788H34.7533H34.975L35.0015 74.011L35.774 80.4322L35.7743 80.4344C36.1594 83.8973 36.7362 87.4182 36.9273 88.2649C36.9745 88.4412 37.0185 88.6088 37.0439 88.7591C37.0693 88.9098 37.0804 89.0663 37.0457 89.215C37.0088 89.3734 36.9234 89.508 36.7851 89.6133C36.6543 89.7129 36.4848 89.7799 36.2856 89.8289C35.8899 89.9263 35.2951 89.9712 34.4369 89.9937C33.5736 90.0163 32.4201 90.0163 30.8946 90.0163H30.8907H30.8859C29.3772 90.0163 28.2312 90.0163 27.3499 89.9875C26.4707 89.9588 25.8359 89.9011 25.3571 89.7793C24.868 89.6548 24.5319 89.461 24.2597 89.16C23.9992 88.8721 23.808 88.4959 23.5863 88.0446C23.0259 86.9698 22.3449 84.9503 21.7497 82.789C21.1529 80.6218 20.635 78.2852 20.4075 76.5664C20.4073 76.5654 20.4072 76.5644 20.4071 76.5635L20.0216 74.0791ZM65.7148 104.027C66.764 102.667 68.2039 100.275 69.384 98.0524C69.9736 96.9421 70.4954 95.8796 70.8691 95.0154C71.0561 94.5831 71.2045 94.2037 71.3057 93.8948C71.4096 93.5778 71.4551 93.3598 71.4551 93.2391C71.4551 92.944 71.6478 92.74 71.9082 92.6069C72.1625 92.4769 72.5282 92.3864 72.9978 92.3199C73.9429 92.1861 75.4079 92.1373 77.499 92.1373C79.1989 92.1373 80.4947 92.141 81.3826 92.238C81.8252 92.2864 82.1899 92.36 82.4598 92.4802C82.7344 92.6025 82.9489 92.792 83.0069 93.0839C83.0608 93.3551 82.9635 93.6478 82.7985 93.9451C82.6296 94.2492 82.3649 94.6018 82.0163 95.0098C81.3188 95.8264 80.2488 96.9069 78.8357 98.3289C77.3322 99.859 74.2684 102.034 71.3446 103.821C69.8796 104.717 68.4418 105.52 67.2422 106.1C66.6427 106.39 66.099 106.626 65.6391 106.79C65.1863 106.951 64.79 107.052 64.495 107.052C64.4364 107.052 64.3676 107.039 64.3041 106.995C64.2398 106.951 64.2015 106.891 64.1809 106.834C64.144 106.732 64.1566 106.624 64.1726 106.546C64.207 106.377 64.2991 106.159 64.4266 105.916C64.6854 105.423 65.1295 104.755 65.7148 104.027Z" fill="#B1FFB1" stroke="#676767" stroke-width="0.5"/>
<path d="M94.2482 61.2234L94.2483 61.2234C94.2057 61.2685 94.1648 61.312 94.1253 61.3539C93.7787 61.7223 93.5477 61.9678 93.2915 62.1151C93.0338 62.2632 92.7348 62.3172 92.2123 62.207C91.6774 62.0942 90.9384 61.8156 89.8236 61.323C88.8112 60.8757 87.505 60.2594 85.7819 59.4464C85.6141 59.3673 85.4424 59.2862 85.2665 59.2033L85.2651 59.2026C82.7139 58.0193 81.2673 57.187 80.5272 56.3482C80.1658 55.9387 79.9779 55.5322 79.9121 55.0811C79.8454 54.6235 79.9018 54.1029 80.0591 53.4624C80.2258 52.817 80.2441 52.2899 79.9392 51.8094C79.6495 51.3528 79.0922 50.9831 78.2577 50.5583C78.2572 50.558 78.2567 50.5578 78.2563 50.5575L78.2535 50.5561C77.2705 50.0397 76.6736 49.7261 75.766 49.9478C75.3306 50.0541 74.8323 50.2803 74.1845 50.6347C73.5348 50.9901 72.7169 51.4847 71.6406 52.1388C69.4012 53.4737 67.2501 54.429 65.4677 54.9127C64.5762 55.1547 63.785 55.2765 63.1256 55.2726C62.4634 55.2686 61.9569 55.1381 61.6118 54.8993C61.2807 54.6695 61.1544 54.4691 61.1278 54.3269C61.1048 54.2039 61.1463 54.0643 61.3261 53.9108C61.5108 53.753 61.8197 53.604 62.2543 53.4953C62.6853 53.3876 63.2236 53.3236 63.8514 53.3236C65.6689 53.3236 67.72 52.4324 71.1936 50.2719L71.1952 50.2709L75.8401 47.332L78.4822 48.6454L81.2504 50.0214L81.4753 50.1332L81.5861 49.9077L87.2512 38.3757L87.2519 38.3741C89.9515 32.7806 91.3448 29.8633 91.9062 28.2402C92.1845 27.4354 92.2788 26.8963 92.1863 26.4896C92.0879 26.0571 91.791 25.8255 91.4828 25.6109L91.4795 25.6086L91.4795 25.6086C90.5782 25.0025 89.8905 24.5303 89.3765 24.1492C88.8594 23.7656 88.5332 23.4849 88.3437 23.2624C88.1559 23.0419 88.1343 22.9164 88.1471 22.8308C88.163 22.7247 88.2411 22.5947 88.4316 22.3841C88.5516 22.2628 88.6661 22.1937 88.7883 22.161C88.9132 22.1276 89.0683 22.1263 89.2776 22.1769C89.7083 22.2809 90.3044 22.587 91.2081 23.1455C91.2083 23.1456 91.2084 23.1457 91.2085 23.1457L91.34 22.9331L94.2482 61.2234ZM94.2482 61.2234L94.2517 61.2199C94.4884 60.979 94.84 60.4901 95.2796 59.7957C95.7154 59.1072 96.2272 58.2339 96.7838 57.2383C97.8968 55.2475 99.1844 52.7758 100.394 50.3336C101.604 47.8911 102.734 45.4815 103.534 43.6147C103.934 42.6806 104.249 41.8866 104.45 41.2941C104.55 40.9972 104.62 40.7568 104.658 40.5777C104.677 40.4879 104.686 40.4194 104.689 40.3702C104.691 40.3371 104.689 40.3214 104.689 40.3176L104.688 40.317L104.686 40.3089C104.526 39.8223 104.175 39.7757 104.034 39.8489C104.029 39.8539 104.015 39.868 103.991 39.8976C103.957 39.9389 103.914 39.9973 103.862 40.0739C103.757 40.2269 103.623 40.4409 103.461 40.7114C103.139 41.2516 102.716 42.0057 102.222 42.9216C101.234 44.7529 99.9643 47.2235 98.6457 49.9077C97.3249 52.5964 96.0521 55.0725 95.0689 56.91C94.5774 57.8285 94.1574 58.5889 93.8396 59.1371C93.6808 59.4109 93.5462 59.6339 93.4402 59.798C93.3874 59.8798 93.34 59.9494 93.2992 60.0044C93.263 60.0532 93.2184 60.1093 93.1716 60.1474L93.1585 60.1581L93.144 60.1669C93.0196 60.2429 92.8625 60.2562 92.7243 60.2526C92.5764 60.2486 92.4024 60.223 92.2114 60.1823C91.8283 60.1007 91.3447 59.9513 90.8016 59.7557C89.7136 59.3638 88.3594 58.7764 87.0388 58.1393C85.7184 57.5023 84.4245 56.8121 83.458 56.2132C82.9758 55.9143 82.5681 55.634 82.2782 55.391C82.1339 55.27 82.0113 55.1521 81.9226 55.0405C81.8415 54.9383 81.7554 54.8007 81.7554 54.6462C81.7554 54.5998 81.7662 54.5543 81.7734 54.5265C81.7822 54.4925 81.7942 54.4538 81.8083 54.4121C81.8367 54.3284 81.8775 54.2205 81.9289 54.0918C82.032 53.8337 82.1824 53.4809 82.3727 53.0484C82.7536 52.1826 83.2978 50.9894 83.9524 49.5786C85.2616 46.7567 87.0144 43.0597 88.789 39.3613C90.5636 35.6628 92.3605 31.9619 93.7582 29.132C94.457 27.7172 95.0564 26.5193 95.5035 25.6481C95.727 25.2126 95.9131 24.8575 96.0548 24.5972C96.1255 24.4671 96.1861 24.3593 96.2352 24.2762C96.2811 24.1986 96.3254 24.1279 96.3622 24.0837L96.3742 24.0693L96.3882 24.0568C96.4648 23.9886 96.5568 23.9732 96.6123 23.9688C96.6743 23.9639 96.74 23.9695 96.8028 23.9791C96.9294 23.9984 97.0858 24.0407 97.2613 24.098C97.6147 24.2135 98.0834 24.4028 98.623 24.6414C99.7043 25.1196 101.094 25.8063 102.465 26.5286C103.836 27.2509 105.193 28.0114 106.209 28.6378C106.717 28.9505 107.144 29.2328 107.447 29.4622C107.597 29.5762 107.724 29.6823 107.815 29.7764C107.861 29.8232 107.903 29.8731 107.936 29.9247C107.966 29.971 108.006 30.0473 108.006 30.1406C108.006 30.2748 107.97 30.4498 107.918 30.6344C107.865 30.8251 107.79 31.0477 107.7 31.2858C107.52 31.7611 107.275 32.3096 107.013 32.8091M94.2482 61.2234L107.013 32.8091M107.013 32.8091C106.764 33.3172 106.595 33.8046 106.512 34.1903C106.47 34.3841 106.451 34.545 106.452 34.6661C106.452 34.7685 106.467 34.8175 106.474 34.8341L107.013 32.8091Z" fill="#66BF57" stroke="#676767" stroke-width="0.5"/>
<path d="M21.396 60.3124L21.3927 60.3138C19.8842 60.9672 18.4397 61.5389 17.3248 61.9553C16.7672 62.1635 16.2931 62.3325 15.9351 62.4532C15.5899 62.5697 15.3707 62.635 15.285 62.6527C14.9204 62.6611 14.539 62.5188 14.1048 62.1378C13.6589 61.7464 13.1718 61.115 12.6137 60.1778C11.4982 58.3043 10.1366 55.2744 8.26937 50.6869C6.30478 45.7699 5.18432 42.7539 4.70607 40.969C4.46463 40.068 4.39854 39.5198 4.44617 39.2082C4.46895 39.0591 4.51344 38.9945 4.5478 38.9644C4.58061 38.9356 4.63741 38.9094 4.74886 38.9086C4.75285 38.9098 4.76411 38.914 4.78362 38.9262C4.81891 38.9481 4.86755 38.9878 4.9296 39.053C5.05382 39.1836 5.20716 39.3905 5.39016 39.6837C5.75491 40.2681 6.21442 41.1577 6.77239 42.367C7.88725 44.7834 9.38156 48.4463 11.2802 53.4248L11.2816 53.4286L11.2817 53.4286C11.9913 55.2015 12.7181 56.8621 13.3253 58.0981C13.6285 58.7153 13.9042 59.2314 14.1347 59.6039C14.2496 59.7896 14.357 59.9456 14.4541 60.0621C14.5027 60.1203 14.5524 60.1734 14.6029 60.2164C14.6478 60.2546 14.7074 60.2972 14.779 60.3207C14.8989 60.3657 15.0442 60.374 15.187 60.3685C15.3401 60.3626 15.5196 60.3392 15.718 60.3025C16.1152 60.2291 16.6104 60.0986 17.1638 59.9283C18.2721 59.5875 19.6358 59.0807 20.9604 58.5299C22.2847 57.9792 23.5767 57.3817 24.5405 56.8581C25.0213 56.5969 25.4278 56.3502 25.7172 56.1334C25.8612 56.0256 25.9846 55.919 26.0744 55.816C26.1556 55.723 26.2484 55.5896 26.2484 55.4324C26.2484 55.3931 26.2411 55.3531 26.2354 55.3255C26.2287 55.2932 26.2195 55.2561 26.2085 55.2155C26.1864 55.1341 26.1544 55.0289 26.1137 54.9027C26.0322 54.6498 25.9128 54.3031 25.7601 53.8743C25.4546 53.0163 25.0134 51.8229 24.47 50.3809C23.3832 47.4966 21.886 43.6133 20.2442 39.4192C18.184 34.1115 16.6209 30.2895 15.4913 27.8012C14.927 26.5582 14.4677 25.6408 14.1063 25.0357C13.9263 24.7344 13.7646 24.5003 13.6207 24.3406C13.5489 24.261 13.4739 24.1912 13.3956 24.1414C13.3225 24.0948 13.2246 24.0519 13.1122 24.0591C13.0195 24.0606 12.9029 24.0812 12.7785 24.1099C12.644 24.1409 12.4823 24.1857 12.2986 24.242C11.9309 24.3545 11.4651 24.5161 10.9355 24.7136C9.87608 25.1087 8.5518 25.6512 7.22818 26.2426M21.396 60.3124L7.32933 26.4713M21.396 60.3124C24.2298 59.1325 26.0322 58.2108 27.0624 57.3609C27.5744 56.9384 27.8793 56.5466 28.0314 56.1659C28.1813 55.7907 28.1915 55.4048 28.0746 54.9736L28.0728 54.9667L28.0713 54.9597C28.0163 54.6987 28.0158 54.445 28.1128 54.2014C28.2094 53.959 28.3909 53.7563 28.6454 53.5745C29.1423 53.2196 29.986 52.8985 31.2682 52.507C33.3935 51.8515 34.6385 51.5271 36.2645 51.62C37.8727 51.7119 39.8485 52.212 43.4432 53.1594C46.9458 54.0751 49.6462 54.5779 51.7852 54.6831C53.9223 54.7882 55.4822 54.4956 56.7167 53.8359L56.7167 53.8359L56.7211 53.8336C56.9509 53.7167 57.3221 53.4468 57.8079 53.0414C58.2884 52.6405 58.8656 52.1201 59.5032 51.5161C60.7778 50.3085 62.2865 48.773 63.7316 47.2042C65.2274 45.5671 66.367 44.256 67.18 43.171C67.9957 42.0823 68.4664 41.2419 68.6469 40.5451C68.8228 39.8662 68.7246 39.3208 68.3782 38.7938C68.0207 38.2499 67.3923 37.7158 66.4793 37.0963C64.8781 36.0098 63.2098 35.5209 61.4763 35.6238C59.7395 35.7268 57.9161 36.4253 56.0116 37.7499L56.0092 37.7515C53.209 39.6516 51.384 40.972 50.2605 41.9209C49.6981 42.3959 49.3209 42.7699 49.0861 43.0705C48.8478 43.3754 48.78 43.5743 48.78 43.7038C48.78 44.0686 48.866 44.178 48.9285 44.2118C48.9661 44.2321 49.0347 44.2501 49.1591 44.2353C49.2838 44.2205 49.4472 44.1747 49.657 44.0873C50.5078 43.7331 51.9141 42.788 54.1086 41.1456C55.2741 40.2559 56.5361 39.3997 57.6209 38.7323C58.6951 38.0713 59.6241 37.5776 60.1122 37.4356L60.1122 37.4355L60.1204 37.4334C60.6812 37.2907 61.3745 37.3032 62.0849 37.4122C62.799 37.5218 63.5492 37.7318 64.2325 37.9999C64.9143 38.2675 65.5406 38.5972 66.0016 38.9518C66.232 39.129 66.4286 39.3182 66.5695 39.5157C66.7098 39.7124 66.8053 39.9325 66.8053 40.1656C66.8053 40.3186 66.7432 40.4909 66.6632 40.6581C66.5794 40.8333 66.4594 41.0356 66.3116 41.2584C66.0154 41.7046 65.5939 42.2526 65.0869 42.8632C64.0722 44.0856 62.7011 45.5754 61.2697 47.0323C59.8382 48.4893 58.3426 49.9172 57.0779 51.0152C56.4458 51.5639 55.8684 52.0327 55.3838 52.3822C54.9097 52.7241 54.4941 52.9745 54.1942 53.0533L54.1942 53.0534L54.1889 53.0546C53.8745 53.1299 53.3941 53.1347 52.7927 53.0905C52.1831 53.0458 51.4229 52.9483 50.534 52.8044C48.7557 52.5164 46.4481 52.04 43.7738 51.4169L43.7724 51.4166L35.3411 49.4012L31.3541 50.625L31.3506 50.6262L27.2984 51.9355L27.0765 52.0072L26.9896 51.7908L26.4108 50.3508C26.4107 50.3507 26.4107 50.3505 26.4106 50.3504C26.0874 49.5608 24.0285 44.322 21.8421 38.7585L21.8388 38.75C20.744 35.9643 19.7298 33.3262 18.9653 31.3359L18.8728 31.0952C18.5313 30.2059 18.244 29.4579 18.0271 28.899C17.7878 28.2823 17.6403 27.9121 17.5982 27.8264L17.595 27.8199L17.5922 27.8132C17.4344 27.4384 17.6414 27.0531 17.9152 26.7657C18.2032 26.4634 18.6384 26.1837 19.1446 25.9776L19.1446 25.9776L19.1482 25.9762C19.673 25.772 20.0167 25.5368 20.2111 25.3189C20.4057 25.1009 20.4316 24.9269 20.3987 24.8118C20.3647 24.6927 20.2428 24.5478 19.9524 24.4455C19.6658 24.3444 19.2455 24.2984 18.6933 24.3602M21.396 60.3124L18.6933 24.3602M7.22818 26.2426C7.22789 26.2428 7.22762 26.2429 7.22733 26.243L7.32933 26.4713M7.22818 26.2426C7.22845 26.2425 7.22874 26.2424 7.22902 26.2423L7.32933 26.4713M7.22818 26.2426C5.95955 26.7984 4.98262 27.2372 4.2541 27.6444C3.52733 28.0506 3.01712 28.4414 2.70982 28.9152C2.39598 29.399 2.31337 29.9379 2.37285 30.5941C2.43147 31.2408 2.63088 32.0273 2.90309 33.0216M7.32933 26.4713C2.24361 28.699 2.05049 28.9611 3.14488 32.958M2.90309 33.0216C2.90286 33.0207 2.90263 33.0198 2.9024 33.0189L3.14488 32.958M2.90309 33.0216C2.99619 33.3934 3.03943 33.694 3.04547 33.9298C3.0516 34.1687 3.0191 34.3256 2.97521 34.4207C2.93456 34.5089 2.88901 34.5366 2.85048 34.5473C2.80264 34.5606 2.71892 34.5597 2.5909 34.5053C2.3318 34.3951 1.98793 34.1056 1.6347 33.6292C1.28633 33.1593 0.943932 32.5278 0.678001 31.7643M2.90309 33.0216C2.90332 33.0225 2.90353 33.0232 2.90376 33.0241L3.14488 32.958M3.14488 32.958L0.678001 31.7643M0.678001 31.7643C0.678223 31.765 0.678452 31.7657 0.678673 31.7663L0.441086 31.8441L0.6772 31.762C0.677467 31.7628 0.677734 31.7635 0.678001 31.7643ZM0.678001 31.7643C0.375687 30.8408 0.222343 30.0982 0.254227 29.4578C0.285583 28.8279 0.496788 28.2848 0.952293 27.7566C1.41445 27.2207 2.13248 26.6952 3.18614 26.1205C4.23792 25.5468 5.60763 24.9326 7.35956 24.2128M0.678001 31.7643L7.26495 23.9814M7.35956 24.2128C7.35944 24.2128 7.35933 24.2129 7.35922 24.2129L7.26495 23.9814M7.35956 24.2128C7.35969 24.2127 7.35983 24.2127 7.35996 24.2126L7.26495 23.9814M7.35956 24.2128C8.96648 23.5586 10.4922 22.9701 11.6633 22.5456C12.2492 22.3332 12.7445 22.1625 13.1159 22.0452C13.3019 21.9865 13.4544 21.942 13.5704 21.9124C13.6285 21.8976 13.6752 21.8871 13.7111 21.8805C13.729 21.8772 13.7428 21.8751 13.7531 21.8738C13.7629 21.8727 13.7671 21.8726 13.7671 21.8726L13.7669 21.8726C13.7862 21.8726 13.855 21.8864 13.9828 21.9505C14.1018 22.0101 14.2468 22.1003 14.4085 22.2179C14.7308 22.4522 15.1031 22.7832 15.4454 23.1629M7.26495 23.9814C10.4837 22.6709 13.3807 21.6226 13.7669 21.6226C14.0888 21.6226 14.9257 22.2123 15.6338 22.9985M15.4454 23.1629C15.4445 23.1618 15.4435 23.1607 15.4426 23.1596L15.6338 22.9985M15.4454 23.1629C16.2729 24.1435 17.3874 24.5682 18.6933 24.3602M15.4454 23.1629C15.4463 23.1639 15.4472 23.1649 15.4481 23.1658L15.6338 22.9985M15.6338 22.9985L18.6933 24.3602" fill="#8BDBF0" stroke="#676767" stroke-width="0.5"/>
<path d="M35.1687 32.8844L35.1686 32.8843L50.7833 2.88301C52.2639 1.90017 52.5214 1.90017 54.6458 3.21063L54.7754 2.99681C54.7757 2.99698 54.7759 2.99715 54.7762 2.99732C55.4486 3.40464 55.9993 3.71076 56.4467 3.92245C56.8982 4.13611 57.227 4.24498 57.4598 4.27286C57.6874 4.30011 57.7764 4.24666 57.8223 4.19215C57.884 4.11882 57.9365 3.96553 57.9365 3.66929C57.9365 3.57669 57.8987 3.44807 57.7995 3.28283C57.7019 3.12011 57.5551 2.93913 57.3643 2.74686C56.9829 2.36252 56.4467 1.95447 55.8421 1.58039C55.2384 1.20694 54.5747 0.872397 53.9424 0.63193C53.3061 0.389955 52.7192 0.25 52.2639 0.25C51.3769 0.25 50.1745 0.787063 49.1782 1.5275C48.6849 1.89407 48.2565 2.30015 47.9541 2.69511C47.6465 3.09681 47.4926 3.4562 47.4926 3.73481C47.4926 3.95026 47.4626 4.15498 47.3676 4.32611C47.2667 4.50779 47.1074 4.6253 46.9046 4.68666C46.7116 4.74505 46.48 4.75287 46.2163 4.73024C45.9505 4.70742 45.6331 4.65172 45.2594 4.56908C42.79 4.06719 40.5769 5.06798 39.2794 7.14263C38.7935 7.93371 38.375 8.44895 37.7969 8.7198C37.2223 8.98901 36.5328 8.99623 35.5652 8.89775C34.612 8.80073 34.0067 8.83916 33.4729 9.08144C32.9332 9.32639 32.433 9.79449 31.7281 10.6423C31.2866 11.1881 30.8767 11.7981 30.5784 12.3335C30.429 12.6016 30.3097 12.8471 30.2285 13.0537C30.1446 13.2674 30.1111 13.4155 30.1111 13.4977C30.1111 13.9202 29.8463 14.2224 29.4506 14.4046C29.0648 14.5823 28.5238 14.6651 27.8654 14.6651C26.5373 14.6651 25.1666 15.3905 24.1206 16.5029C23.0756 17.6141 22.3859 19.0789 22.3859 20.5087C22.3859 21.8008 22.5764 23.2678 22.7566 23.8284C22.7604 23.8355 22.7774 23.8653 22.8231 23.9249C22.8713 23.9878 22.9396 24.0687 23.0285 24.1676C23.2058 24.365 23.4559 24.6236 23.7702 24.9359C24.3982 25.5598 25.2737 26.3887 26.317 27.3524C28.4031 29.2793 31.1534 31.7389 33.9205 34.1624C36.6877 36.5858 39.4701 38.9717 41.6202 40.7511C42.6956 41.6411 43.6109 42.3777 44.2862 42.891C44.6244 43.1481 44.8991 43.3466 45.1021 43.48C45.204 43.5469 45.2835 43.5945 45.3413 43.6243C45.364 43.6361 45.3808 43.6438 45.3925 43.6485C45.4309 43.6405 45.4981 43.6036 45.5699 43.48C45.6468 43.3476 45.7015 43.1549 45.7049 42.9391C45.7017 42.9317 45.6952 42.9179 45.683 42.8965C45.6545 42.8466 45.608 42.7779 45.5402 42.6892C45.4055 42.5127 45.2025 42.2771 44.9354 41.9875C44.4022 41.4093 43.6277 40.631 42.6675 39.7069C40.7479 37.8594 38.0956 35.4378 35.1687 32.8844ZM49.2114 4.12784C49.4942 3.59281 49.981 3.11408 50.6451 2.67467L35.5905 21.295L35.7471 21.1001C35.7474 21.1003 35.7477 21.1006 35.748 21.1008C36.9687 22.0817 38.1389 22.9789 39.0584 23.63C39.5188 23.9559 39.9126 24.2175 40.2167 24.3967C40.3691 24.4864 40.4945 24.5528 40.5917 24.596C40.6922 24.6406 40.7357 24.6479 40.7402 24.6487C40.7405 24.6487 40.7407 24.6487 40.7406 24.6487C40.9394 24.6487 41.0642 24.6198 41.1362 24.5838C41.1973 24.5532 41.2163 24.5212 41.2246 24.483C41.2361 24.4304 41.2319 24.3348 41.1725 24.1796C41.1143 24.0274 41.0113 23.8398 40.8567 23.6155C40.2337 22.712 38.8732 21.3549 36.7818 19.5864C35.5551 18.5677 34.5802 17.6754 33.8484 16.8796C33.1182 16.0856 32.6185 15.3757 32.3568 14.7208C32.0921 14.0582 32.0693 13.4458 32.3019 12.8697C32.5307 12.303 32.9944 11.8024 33.6405 11.3302L33.6424 11.3288C34.0834 11.013 34.4902 10.7729 34.9471 10.6855C35.4113 10.5967 35.8951 10.6708 36.4835 10.9164C37.0672 11.16 37.7703 11.5794 38.6816 12.2008C39.5949 12.8236 40.7295 13.658 42.1777 14.7389C43.4925 15.7181 44.8067 16.6152 45.8549 17.2749C46.3792 17.6049 46.8346 17.8739 47.1887 18.0636C47.3659 18.1586 47.5149 18.2322 47.6329 18.2833C47.7494 18.3338 47.8178 18.3544 47.8478 18.3597C48.0875 18.3743 48.2651 18.362 48.3892 18.3325C48.5164 18.3021 48.5598 18.2606 48.5736 18.2405C48.5838 18.2257 48.6021 18.1882 48.5791 18.0917C48.5553 17.9917 48.4918 17.8539 48.3713 17.6756C47.8833 16.9539 46.6456 15.8299 44.6478 14.354L44.6477 14.3541L44.6451 14.3521C42.6168 12.8119 41.3163 11.5358 40.7647 10.3871C40.4847 9.80401 40.392 9.2424 40.5048 8.69389C40.617 8.14846 40.9265 7.64449 41.3992 7.16337C41.7803 6.77541 42.2061 6.51498 42.7093 6.41838C43.2095 6.32234 43.7598 6.39331 44.383 6.62046C45.6187 7.07084 47.2093 8.16192 49.3971 9.96305L49.3972 9.96312C51.423 11.6322 52.9963 12.7291 54.053 13.231C54.5922 13.4871 54.9469 13.5631 55.1455 13.5305C55.2314 13.5164 55.2734 13.4846 55.2998 13.4473C55.3297 13.4049 55.3593 13.3261 55.3614 13.1856C55.3588 13.1792 55.3508 13.1586 55.3283 13.1199C55.2927 13.0587 55.236 12.9773 55.1565 12.8763C54.9982 12.6751 54.7655 12.4159 54.4744 12.1156C53.8934 11.5161 53.0944 10.7678 52.2294 10.0178C50.3927 8.44344 49.2885 7.08763 49.0029 5.87234C48.8571 5.25173 48.9251 4.66945 49.2114 4.12784ZM45.4074 43.6539C45.4071 43.6538 45.4066 43.6536 45.4057 43.6534L45.4074 43.6539Z" fill="#66BF57" stroke="#676767" stroke-width="0.5"/>
<path d="M102.356 32.8926C102.356 32.1437 102.064 31.526 101.558 31.0921C101.049 30.6553 100.306 30.3906 99.3872 30.3906C98.4684 30.3906 97.7254 30.6553 97.2163 31.0921C96.7104 31.526 96.4184 32.1437 96.4184 32.8926C96.4184 33.2236 96.5097 33.4414 96.629 33.5743C96.747 33.7058 96.9132 33.7779 97.1138 33.7811C97.5231 33.7875 98.0767 33.4975 98.4627 32.8328C98.6224 32.5564 98.7609 32.3297 98.8921 32.1718C99.0186 32.0195 99.1855 31.8727 99.4113 31.8727C99.6269 31.8727 99.8045 32.0087 99.9508 32.1544C100.105 32.308 100.28 32.5307 100.488 32.8074C100.749 33.1508 101.011 33.3997 101.251 33.56C101.494 33.7219 101.699 33.7839 101.853 33.7811C101.995 33.7785 102.107 33.7213 102.193 33.5985C102.285 33.466 102.356 33.2402 102.356 32.8926Z" fill="#66BF57" stroke="#676767" stroke-width="0.5"/>
<path d="M13.232 33.2858L13.2319 33.2858L13.2359 33.2797C13.2614 33.2408 13.2873 33.1592 13.2856 33.0153C13.2839 32.8759 13.2565 32.7032 13.2036 32.5071C13.0982 32.1162 12.8999 31.6637 12.6533 31.2554C11.8733 30.0363 10.595 29.6193 9.51934 29.8368C8.44859 30.0533 7.57929 30.8943 7.57929 32.2373C7.57929 32.5848 7.65048 32.811 7.74223 32.9439C7.82736 33.0672 7.9377 33.1232 8.07433 33.1258C8.2223 33.1286 8.42094 33.0676 8.65382 32.9069C8.88447 32.7476 9.13435 32.4999 9.37904 32.1574L9.37962 32.1566C9.55482 31.9135 9.70823 31.7106 9.84995 31.5746C9.98737 31.4428 10.1732 31.3163 10.403 31.3613C10.6099 31.4018 10.7639 31.5688 10.8892 31.7412C11.0229 31.9254 11.1709 32.185 11.3474 32.5115L11.3474 32.5115L11.3482 32.5129C11.5514 32.8948 11.7496 33.1874 11.938 33.3969C12.1278 33.608 12.2963 33.7222 12.4375 33.7691C12.5697 33.8131 12.6892 33.8026 12.8102 33.7372C12.9397 33.6673 13.0841 33.5266 13.232 33.2858Z" fill="#8BDBF0" stroke="#676767" stroke-width="0.5"/>
<path d="M82.6086 11.2281L82.6086 11.2282L82.6067 11.223C82.3583 10.5277 82.0562 10.0458 81.6645 9.7061C81.2734 9.36707 80.7721 9.15161 80.0929 9.02591L80.0929 9.026L80.086 9.02453C78.8161 8.75243 77.8093 8.0562 77.5161 7.01431C77.1724 5.83809 76.6326 4.97114 75.911 4.39734C75.1908 3.8247 74.2672 3.52615 73.1214 3.52615C72.2934 3.52615 71.61 3.40826 71.011 3.12547C70.4104 2.84201 69.9143 2.40219 69.4464 1.78987C69.013 1.22263 68.5752 0.843005 68.0725 0.602228C67.5689 0.361023 66.9811 0.25 66.2331 0.25C65.5865 0.25 64.8549 0.502061 64.1108 0.949358C63.3692 1.39508 62.6316 2.0249 61.9774 2.755C60.6603 4.22474 59.7237 6.05099 59.7237 7.53514C59.7237 8.67315 60.255 9.84458 61.052 10.7346C61.8514 11.6273 62.8832 12.1994 63.8512 12.1994C64.3612 12.1994 64.7846 12.3021 65.0825 12.553C65.3892 12.8113 65.5175 13.1872 65.5175 13.6288C65.5175 14.4105 66.0054 15.2304 66.8163 15.8829C67.6226 16.5316 68.7158 16.9859 69.8519 17.0484L69.8531 17.0485C70.427 17.0829 71.0327 17.2198 71.5486 17.4264C72.0519 17.6279 72.5102 17.912 72.747 18.2687C73.2011 18.8823 74.0337 19.5302 74.8901 19.994C75.3169 20.2252 75.7404 20.4055 76.1139 20.5119C76.4951 20.6205 76.7935 20.6432 76.9867 20.594L76.9965 20.5915L77.0065 20.5898C77.1781 20.5607 77.3804 20.6196 77.5634 20.6954C77.7596 20.7766 77.9844 20.8995 78.2216 21.0519C78.6966 21.3573 79.2421 21.7951 79.7373 22.2992C80.8796 23.4618 81.8253 23.9536 82.7684 23.8876C83.7252 23.8207 84.7634 23.1763 86.0758 21.8405C87.5991 20.29 88.1929 19.1047 88.1929 17.7567C88.1929 16.7103 87.7367 15.6009 87.0567 14.7515C86.372 13.8961 85.5028 13.3546 84.7091 13.3546C84.2889 13.3546 83.8738 13.1031 83.5228 12.7371C83.1657 12.3648 82.8436 11.8431 82.6086 11.2281ZM86.3453 18.6619L86.3441 18.6639C85.4535 20.2755 84.2004 21.3313 83.0727 21.658C82.5066 21.8219 81.9505 21.807 81.4953 21.5533C81.0358 21.2972 80.7244 20.8232 80.6012 20.1641C80.3886 19.1478 80.8349 17.9777 81.5255 17.0801C82.2144 16.1846 83.2126 15.4755 84.1941 15.4755C85.0787 15.4755 85.8169 15.8909 86.235 16.5016C86.6547 17.1144 86.7467 17.919 86.3453 18.6619ZM79.3148 10.5082L79.3153 10.5083C79.8864 10.6964 80.3446 10.951 80.6731 11.2865C81.0056 11.6261 81.1947 12.0381 81.2402 12.5157C81.3293 13.4499 80.8675 14.6098 79.9617 15.9928C79.2872 17.0388 78.7652 17.7176 78.2129 18.1013C77.6381 18.5006 77.0537 18.5662 76.3103 18.4636C75.6503 18.396 75.1341 18.2404 74.769 17.8982C74.3998 17.552 74.2274 17.0553 74.1603 16.4072C74.0896 15.7579 74.2631 15.0283 74.5722 14.322C74.8829 13.612 75.3394 12.9055 75.8604 12.2952C76.3805 11.686 76.9735 11.1628 77.5626 10.8283C78.1447 10.4979 78.7659 10.3286 79.3148 10.5082ZM64.2523 2.96989L64.252 2.96962L64.2623 2.96026C64.8735 2.40361 65.3607 2.0395 65.8222 1.89859C66.3146 1.74821 66.7442 1.85974 67.2027 2.14696L67.2035 2.14747C68.2201 2.78965 68.6777 3.79832 68.5907 4.94945C68.5048 6.08672 67.8907 7.34889 66.8052 8.55425L66.8048 8.55469C66.2412 9.17741 65.7814 9.65886 65.385 9.99877C64.9917 10.336 64.6343 10.5579 64.274 10.6232C63.897 10.6915 63.5591 10.5819 63.2272 10.3525C62.9044 10.1293 62.5687 9.78014 62.1823 9.33767C61.6758 8.75768 61.3442 8.32481 61.2854 7.82651C61.2266 7.32803 61.4468 6.81863 61.828 6.10726C62.2945 5.22579 63.4067 3.83056 64.2523 2.96989ZM67.793 14.4592C67.4672 14.1277 67.2312 13.7739 67.1119 13.3687C66.9922 12.9625 66.9961 12.5253 67.1171 12.037C67.3553 11.0757 68.059 9.87771 69.2492 8.24071C70.3784 6.66456 71.377 5.64856 72.312 5.2344C72.7883 5.02343 73.255 4.96546 73.7112 5.07561C74.1638 5.18491 74.5813 5.45377 74.9735 5.85291C75.3374 6.22331 75.5842 6.63384 75.7013 7.09475C75.8183 7.55493 75.8019 8.04884 75.6649 8.58038C75.3935 9.63356 74.6407 10.8636 73.4456 12.3431C72.2843 13.8204 71.2839 14.7525 70.3643 15.1145C69.8957 15.299 69.4425 15.3378 69.0033 15.2207C68.5676 15.1046 68.1681 14.8411 67.793 14.4592Z" fill="#8BDBF0" stroke="#676767" stroke-width="0.5"/>
</svg>
