<svg width="80" height="81" viewBox="0 0 80 81" fill="none" xmlns="http://www.w3.org/2000/svg">
<path d="M23.286 0.958847C22.9335 0.991276 21.9243 1.13721 21.0593 1.28315C9.15681 3.21275 0.586412 13.5742 0.0257313 26.7247C-0.374755 36.2916 3.91846 44.1722 11.5918 47.9665C13.6102 48.9718 14.7796 49.3772 17.0384 49.8637C19.2811 50.3501 24.0229 50.3501 26.7301 49.8637C29.6777 49.3286 33.1539 48.0638 34.051 47.2044C34.5156 46.7666 34.5476 45.7775 34.1471 45.4207C33.5544 44.9018 33.186 44.9181 31.7442 45.5829C28.9088 46.8801 26.3297 47.4801 22.8214 47.6584C19.185 47.853 15.933 47.2206 12.8573 45.6964C7.53885 43.0695 4.23885 38.6428 2.90923 32.3189C2.46069 30.2109 2.50875 25.395 2.98933 22.9466C4.12671 17.2226 6.65778 12.5851 10.5986 9.01777C16.7981 3.40733 26.7462 1.85068 33.987 5.36936C40.0423 8.3043 43.5506 14.2877 43.5506 21.698C43.5506 28.1516 40.9554 33.3891 36.7583 35.416C35.2205 36.1619 33.234 36.5511 32.8816 36.1781C32.4811 35.7727 32.337 33.7134 32.5132 30.7785C32.6573 28.3138 32.8175 27.3409 34.035 21.5034C34.7719 17.9199 35.3806 14.8066 35.3806 14.612C35.3806 14.4012 35.2685 14.0769 35.1404 13.8823C34.6117 13.1202 31.1996 12.1797 28.1719 11.9527C19.4093 11.3365 11.6238 17.6442 10.2301 26.5139C9.90973 28.4759 10.102 31.4595 10.6146 32.9675C11.9602 36.8916 15.4204 39.2428 19.3612 38.9022C23.0297 38.5779 26.1534 37.1348 28.6845 34.589C29.8539 33.4053 29.934 33.4215 29.934 34.8485C29.934 35.2052 30.0462 35.9024 30.1903 36.3889C30.735 38.2861 31.9044 39.0806 33.8107 38.9022C36.2457 38.6428 38.5205 37.7023 40.3947 36.1295C44.6879 32.5297 46.8986 25.3302 45.8574 18.2604C45.537 15.9741 44.9603 14.0769 44.0472 12.1149C43.054 10.0069 42.2049 8.74211 40.6831 7.13681C36.9826 3.19653 32.0967 1.10478 26.2015 0.958847C24.952 0.926418 23.6384 0.926418 23.286 0.958847ZM29.1331 14.6606C30.5588 14.8228 32.337 15.2444 32.5292 15.4227C32.6734 15.5687 30.3345 26.9193 29.918 28.0057C28.9248 30.7136 26.4418 33.6323 24.0709 34.8647C22.2767 35.8214 20.5947 36.2592 18.7204 36.2754C17.3908 36.2916 17.0864 36.243 16.2855 35.8538C13.8345 34.6863 12.633 32.4648 12.633 29.0272C12.633 25.168 14.0908 21.6007 16.7981 18.8441C18.1437 17.4821 18.9767 16.8659 20.5787 16.0389C23.1898 14.7255 26.0253 14.2553 29.1331 14.6606Z" fill="#EF7F1A"/>
<path d="M61.2522 9.19617C60.5954 9.89342 58.7531 12.65 57.5677 14.7093C55.9497 17.4983 54.1395 21.5683 52.9861 24.9897C52.4575 26.5626 52.4895 26.7572 53.5789 28.0381C54.9245 29.6434 57.0711 31.1515 59.3298 32.0757C59.9546 32.3352 60.4832 32.5622 60.5153 32.5784C60.5954 32.6432 57.4395 37.4591 55.4371 40.3454C52.89 44.01 42.6536 57.8416 41.7085 58.8793C41.5643 59.0415 41.2119 58.782 40.0104 57.5659C38.072 55.6201 34.8361 53.3986 33.907 53.3986C33.2181 53.3986 30.7191 55.1985 28.0118 57.647C25.3206 60.0792 19.3613 67.0193 19.3613 67.7166C19.3613 68.1219 20.2584 69.938 20.9953 71.0407C24.6317 76.4727 30.7992 80.3157 36.7745 80.8995C37.7196 80.9805 38.1201 80.9319 39.0813 80.64C41.6924 79.8455 43.2303 78.7915 47.107 75.1755C57.7599 65.2357 65.5934 54.9066 74.0197 39.6968C76.759 34.7674 78.1207 31.7676 79.1619 28.5084C80.027 25.8005 80.1551 24.7789 79.8508 23.4006C78.8095 18.7144 75.1571 14.2553 69.8386 11.1906C67.0192 9.56911 64.44 8.64485 62.7099 8.64485C61.8449 8.64485 61.7328 8.6935 61.2522 9.19617ZM64.6323 11.6284C66.3303 12.2122 68.0765 13.0716 69.6143 14.0931C73.8435 16.8659 76.4066 20.0603 77.2876 23.6276C77.544 24.6492 77.544 24.714 77.1274 26.3356C76.2304 29.838 74.4522 33.6972 70.7036 40.3454C63.2066 53.6094 56.2381 62.8358 47.0269 71.6893C42.6696 75.8728 41.1798 77.0727 39.4177 77.8024C38.04 78.3699 37.4953 78.4186 35.8774 78.1429C32.0808 77.4781 28.6206 75.5809 25.5128 72.4514C24.071 70.992 22.2448 68.5435 22.2448 68.0733C22.2448 67.7976 25.6089 63.8087 27.7075 61.6035C29.4055 59.8036 32.5133 57.0794 33.5706 56.4471L34.0351 56.1714L35.6211 57.2578C37.5434 58.555 38.9691 59.9657 39.7701 61.344C40.5871 62.7385 41.0196 63.0304 41.8526 62.7061C42.0929 62.6088 47.6677 55.3606 52.2973 49.1016C58.2565 41.0589 63.7832 32.7405 63.7832 31.7838C63.7832 31.0866 63.3027 30.7461 61.3803 30.065C59.2818 29.3516 57.6959 28.4273 56.3502 27.1787C55.1808 26.0761 55.1808 26.2707 56.4624 22.9952C58.4648 17.9523 62.2934 11.2555 63.1905 11.2393C63.3667 11.2393 64.0235 11.4176 64.6323 11.6284Z" fill="#175CA8"/>
</svg>
