<svg width="68" height="51" viewBox="0 0 68 51" fill="none" xmlns="http://www.w3.org/2000/svg">
<g filter="url(#filter0_d_329_24382)">
<path d="M5.91489 0C4.85733 0 4 0.995821 4 2.22414V36.3276C4 37.556 4.85733 38.5517 5.91489 38.5517C6.97246 38.5517 7.82979 37.556 7.82979 36.3276V4.44828H59.5319C60.5895 4.44828 61.4468 3.45253 61.4468 2.22414C61.4468 0.995821 60.5895 0 59.5319 0H5.91489ZM10.8218 5.93103C9.88812 6.04476 9.10137 7.06401 9.10638 8.15517V40.7759C9.10648 41.9404 10.0194 42.9999 11.0213 43H62.0851C63.087 42.9999 63.9999 41.9404 64 40.7759V8.15517C63.9999 6.99069 63.087 5.93118 62.0851 5.93103H10.8218ZM12.9362 10.3793H24.3258C21.2337 14.0042 19.3191 18.9747 19.3191 24.4655C19.3191 29.9447 21.2254 34.9288 24.3059 38.5517H12.9362V10.3793ZM30.8484 10.3793H42.258C46.7995 12.8678 49.9574 18.2213 49.9574 24.4655C49.9574 30.7097 46.7995 36.0632 42.258 38.5517H30.8484C26.3069 36.0632 23.1489 30.7097 23.1489 24.4655C23.1489 18.2213 26.3069 12.8678 30.8484 10.3793ZM48.7806 10.3793H60.1702V38.5517H48.8005C51.881 34.9288 53.7872 29.9447 53.7872 24.4655C53.7872 18.9747 51.8726 14.0042 48.7806 10.3793ZM30.609 13.3448C29.6063 13.4056 28.8936 14.4027 28.8936 15.569C28.8936 17.0517 29.8057 17.854 30.8085 17.7931H31.4468V23.7241H30.8085C29.7969 23.7078 28.8936 24.7731 28.8936 25.9483C28.8936 27.431 29.7969 28.1891 30.8085 28.1724H31.4468V29.6552H30.8085C29.751 29.6552 28.8936 30.651 28.8936 31.8793C28.8936 33.1077 29.751 34.1034 30.8085 34.1034H31.4468V34.8448C31.4328 36.0199 32.3499 37.069 33.3617 37.069C34.3735 37.069 35.2909 36.0199 35.2766 34.8448V34.1034H39.7447C40.8023 34.1034 41.6596 33.1077 41.6596 31.8793C41.6596 30.651 40.8023 29.6552 39.7447 29.6552H35.2766V28.1724H39.1064C42.5481 28.1724 45.4894 24.8923 45.4894 20.7586C45.4894 16.625 42.5481 13.3448 39.1064 13.3448H30.609ZM35.2766 17.7931H39.1064C40.3986 17.7931 41.6596 19.1422 41.6596 20.7586C41.6596 22.3751 40.3986 23.7241 39.1064 23.7241H35.2766V17.7931Z" fill="#175CA8"/>
</g>
<defs>
<filter id="filter0_d_329_24382" x="0" y="0" width="68" height="51" filterUnits="userSpaceOnUse" color-interpolation-filters="sRGB">
<feFlood flood-opacity="0" result="BackgroundImageFix"/>
<feColorMatrix in="SourceAlpha" type="matrix" values="0 0 0 0 0 0 0 0 0 0 0 0 0 0 0 0 0 0 127 0" result="hardAlpha"/>
<feOffset dy="4"/>
<feGaussianBlur stdDeviation="2"/>
<feComposite in2="hardAlpha" operator="out"/>
<feColorMatrix type="matrix" values="0 0 0 0 0 0 0 0 0 0 0 0 0 0 0 0 0 0 0.25 0"/>
<feBlend mode="normal" in2="BackgroundImageFix" result="effect1_dropShadow_329_24382"/>
<feBlend mode="normal" in="SourceGraphic" in2="effect1_dropShadow_329_24382" result="shape"/>
</filter>
</defs>
</svg>
