<svg width="40" height="41" viewBox="0 0 40 41" fill="none" xmlns="http://www.w3.org/2000/svg">
<circle cx="20" cy="20.9347" r="20" fill="#175CA8"/>
<g clip-path="url(#clip0_466_27066)">
<path d="M14.2222 30.7124H25.1156L24.8888 31.6013H14.2222V30.7124Z" fill="white"/>
<path d="M14.2222 29.8236H25.9719L25.3333 30.7125H14.2222V29.8236Z" fill="white"/>
<rect x="14.2222" y="15.1569" width="12.8889" height="14.2222" fill="white"/>
<rect x="14.2222" y="28.9347" width="12.4444" height="0.888889" fill="white"/>
<rect x="9.79932" y="13.9153" width="12.9413" height="16.572" transform="rotate(-7.9118 9.79932 13.9153)" fill="white"/>
<rect x="17.3921" y="10.4967" width="12.8831" height="16.1017" transform="rotate(5.7719 17.3921 10.4967)" fill="white"/>
<path d="M17.1222 9.91904C17.031 10.0102 17.0137 10.1274 16.8791 11.4295C16.801 12.2064 16.7272 12.8487 16.7185 12.8574C16.7142 12.8617 15.0779 13.0918 13.0857 13.3609C11.0935 13.63 9.42251 13.873 9.37043 13.8991C9.32269 13.9251 9.26626 13.9989 9.25324 14.064C9.22286 14.1812 11.4277 30.6352 11.4972 30.8218C11.5709 31.0171 11.6795 31.0215 12.6083 30.8999C13.0814 30.8348 13.5197 30.7741 13.5892 30.7611L13.7064 30.735V31.2992C13.7064 31.8591 13.7064 31.8678 13.8192 31.9546C13.9364 32.0458 13.9364 32.0458 19.2793 32.0458H24.6222L26.0631 30.6005L27.5084 29.1595V28.7385C27.5084 28.5085 27.5215 28.3088 27.5432 28.3001C27.5605 28.2914 27.8513 28.3131 28.1899 28.3479C28.7584 28.4086 28.8149 28.4086 28.9147 28.3392C29.0536 28.248 29.0492 28.2741 29.1751 27.0414C29.2532 26.2689 29.2706 25.9781 29.2359 25.9043C29.1491 25.709 28.8322 25.6786 28.689 25.8479C28.6456 25.8999 28.4633 27.3366 28.4633 27.6274C28.4633 27.7098 28.4459 27.7142 28.0857 27.6838C27.873 27.6708 27.6604 27.6447 27.6083 27.6317L27.5084 27.61V21.2602V14.906L27.3956 14.8192C27.2828 14.7281 27.2394 14.7281 25.2689 14.7281C24.1621 14.7281 23.255 14.715 23.255 14.6933C23.2506 14.676 23.1769 14.1161 23.0857 13.4477C22.9338 12.3626 22.9078 12.2281 22.8209 12.1586C22.7689 12.1152 22.6777 12.0805 22.6256 12.0805C22.5692 12.0805 21.3756 12.2367 19.9737 12.4277C18.5718 12.6187 17.4173 12.7663 17.4086 12.7619C17.3913 12.7446 17.617 10.5484 17.6387 10.5223C17.6473 10.5137 20.4208 10.7958 23.8062 11.143C27.1916 11.4946 29.9867 11.7767 30.0171 11.7767C30.0475 11.7767 30.0692 11.8288 30.0692 11.9025C30.0692 11.972 29.7871 14.7671 29.4399 18.1178C29.0927 21.4685 28.8105 24.2506 28.8105 24.3071C28.8105 24.6413 29.3617 24.6803 29.4399 24.3505C29.4876 24.1552 30.768 11.6204 30.755 11.4772C30.7289 11.1821 31.1456 11.2385 23.9277 10.5006C20.2992 10.1274 17.3045 9.82356 17.2741 9.82356C17.2437 9.82356 17.1742 9.86696 17.1222 9.91904ZM22.3435 12.814C22.3435 12.8661 22.5519 14.4069 22.5822 14.5848L22.6083 14.7281H18.2723C13.9494 14.7281 13.9364 14.7281 13.8192 14.8192L13.7064 14.906V16.2906C13.7064 17.6621 13.7064 17.6751 13.8019 17.7663C13.9321 17.8835 14.1187 17.8791 14.2489 17.7446L14.3574 17.6404V16.5076V15.3791H20.6074H26.8574V22.0197V28.656L25.5944 28.669L24.3314 28.6821L24.2489 28.7862C24.1708 28.8817 24.1664 28.9729 24.1664 30.1404V31.3947H19.2619H14.3574V25.2923C14.3574 21.3991 14.34 19.1638 14.314 19.1117C14.2619 19.0163 14.0362 18.9295 13.9321 18.9685C13.893 18.9815 13.8236 19.0249 13.7845 19.0597C13.7107 19.1204 13.7064 19.4416 13.7064 24.6022V30.084L13.5631 30.11C13.2376 30.1664 12.0874 30.314 12.0744 30.2966C12.0571 30.2836 9.93032 14.6022 9.93032 14.498C9.93032 14.4546 10.0432 14.4242 10.3123 14.3895C10.8505 14.3244 21.2454 12.9138 21.7142 12.8444C22.2046 12.7706 22.3435 12.7663 22.3435 12.814ZM26.38 29.3461C26.38 29.3635 26.0284 29.7281 25.5987 30.1578L24.8175 30.939V30.123V29.3114H25.5987C26.0284 29.3114 26.38 29.3244 26.38 29.3461Z" fill="black"/>
</g>
<defs>
<clipPath id="clip0_466_27066">
<rect width="22.2222" height="22.2222" fill="white" transform="translate(8.88867 9.82361)"/>
</clipPath>
</defs>
</svg>
