<svg width="110" height="111" viewBox="0 0 110 111" fill="none" xmlns="http://www.w3.org/2000/svg">
<mask id="path-1-inside-1_546_18554" fill="white">
<path d="M25.8041 5.0381C28.1465 5.7162 30.7682 7.50391 32.3369 9.45602C33.132 10.4629 34.1206 12.5177 34.4644 13.915C35.9902 20.0796 32.208 26.4496 25.9116 28.3811C22.3228 29.4702 18.1539 28.9359 15.0809 27.0249C12.3732 25.3194 10.0738 22.155 9.45064 19.2576C8.01084 12.5794 12.803 5.83949 19.8086 4.62713C21.3773 4.36 24.1709 4.54493 25.8041 5.0381ZM57.5226 4.75042C64.1199 6.02442 68.6971 12.1684 67.6871 18.3946C66.6771 24.6002 61.4552 28.9359 54.9869 28.9359C51.4626 28.9359 48.454 27.7441 45.9613 25.3811C43.49 22.9974 42.2436 20.1207 42.2436 16.7507C42.2436 13.3808 43.49 10.4834 45.9613 8.12037C49.0558 5.16139 53.3107 3.92848 57.5226 4.75042ZM90.509 4.72987C95.3656 5.7162 99.2122 9.20943 100.437 13.7712C100.845 15.3534 100.845 18.1069 100.416 19.7097C99.8139 21.97 98.8899 23.4906 96.9988 25.2989C94.3341 27.888 91.5834 28.9565 87.7583 28.9154C80.5164 28.8538 74.7787 22.9153 75.2514 15.9493C75.7457 8.57243 83.0306 3.20929 90.509 4.72987ZM39.7508 22.5865C40.1161 23.3879 40.46 24.1482 40.5029 24.2714C40.5674 24.3947 40.1376 24.8879 39.5789 25.34L38.5259 26.1619L37.4085 25.34L36.3125 24.518L36.8068 23.5523C37.4299 22.4015 38.1176 20.3056 38.3325 18.9083L38.5044 17.8809L38.8053 19.5042C38.9557 20.3878 39.3855 21.7645 39.7508 22.5865ZM71.8776 19.833C72.028 20.6344 72.5008 22.0317 72.8876 22.9153L73.6182 24.5386L72.5438 25.3605L71.4908 26.203L70.4378 25.3605C69.8576 24.9084 69.3848 24.4975 69.3848 24.4564C69.3848 24.4358 69.6642 23.8194 70.0295 23.1002C70.7386 21.6412 71.3189 19.648 71.3189 18.7234C71.3189 17.7781 71.5552 18.2302 71.8776 19.833ZM11.1483 28.525C17.2083 33.7648 26.7927 33.7648 32.8742 28.5044L34.1421 27.3948L34.7223 27.8058C35.0661 28.0318 35.4959 28.3811 35.6893 28.6072C36.0546 28.977 36.0331 29.0387 35.5174 29.7784C33.6048 32.4497 32.6163 37.1142 33.261 40.3403L33.4329 41.2034L18.7986 41.1623L4.16423 41.1006L3.90635 39.6622C3.43358 37.1553 4.0138 34.3402 5.51806 31.7511C6.27019 30.4565 9.17128 27.4359 9.64404 27.4359C9.79447 27.4359 10.4606 27.9291 11.1483 28.525ZM44.3066 28.6894C46.0687 30.1278 48.9913 31.5456 51.2262 32.0799C53.1817 32.5319 56.7275 32.5319 58.7475 32.0799C60.9179 31.5867 63.862 30.1483 65.6886 28.6688L67.2573 27.4154L67.9665 27.9085C70.0295 29.4291 71.5982 31.5045 72.5438 33.9703C73.2099 35.6553 73.4463 38.5732 73.038 40.1554L72.7801 41.2034H55.0083H37.215L36.9787 40.1554C36.3984 37.7718 36.9142 34.5662 38.268 32.1004C38.8697 30.9908 42.1791 27.4359 42.6089 27.4359C42.6734 27.4359 43.447 27.9907 44.3066 28.6894ZM77.078 28.4839C83.224 33.7443 92.8728 33.7648 98.8469 28.5044C99.5131 27.9291 100.179 27.4359 100.308 27.4359C100.459 27.4359 101.318 28.1551 102.221 29.0181C105.401 32.0799 106.884 36.2512 106.089 39.8677L105.809 41.1006L91.1751 41.1623L76.5193 41.2034L76.7127 40.4431C77.0136 39.1896 76.9276 36.169 76.5623 34.5662C76.1755 32.9634 75.3804 31.1346 74.4778 29.7579L73.9191 28.8949L74.8216 28.1757C75.3159 27.7647 75.7672 27.4359 75.7887 27.4359C75.8316 27.4359 76.4119 27.9085 77.078 28.4839Z"/>
</mask>
<path d="M25.8041 5.0381C28.1465 5.7162 30.7682 7.50391 32.3369 9.45602C33.132 10.4629 34.1206 12.5177 34.4644 13.915C35.9902 20.0796 32.208 26.4496 25.9116 28.3811C22.3228 29.4702 18.1539 28.9359 15.0809 27.0249C12.3732 25.3194 10.0738 22.155 9.45064 19.2576C8.01084 12.5794 12.803 5.83949 19.8086 4.62713C21.3773 4.36 24.1709 4.54493 25.8041 5.0381ZM57.5226 4.75042C64.1199 6.02442 68.6971 12.1684 67.6871 18.3946C66.6771 24.6002 61.4552 28.9359 54.9869 28.9359C51.4626 28.9359 48.454 27.7441 45.9613 25.3811C43.49 22.9974 42.2436 20.1207 42.2436 16.7507C42.2436 13.3808 43.49 10.4834 45.9613 8.12037C49.0558 5.16139 53.3107 3.92848 57.5226 4.75042ZM90.509 4.72987C95.3656 5.7162 99.2122 9.20943 100.437 13.7712C100.845 15.3534 100.845 18.1069 100.416 19.7097C99.8139 21.97 98.8899 23.4906 96.9988 25.2989C94.3341 27.888 91.5834 28.9565 87.7583 28.9154C80.5164 28.8538 74.7787 22.9153 75.2514 15.9493C75.7457 8.57243 83.0306 3.20929 90.509 4.72987ZM39.7508 22.5865C40.1161 23.3879 40.46 24.1482 40.5029 24.2714C40.5674 24.3947 40.1376 24.8879 39.5789 25.34L38.5259 26.1619L37.4085 25.34L36.3125 24.518L36.8068 23.5523C37.4299 22.4015 38.1176 20.3056 38.3325 18.9083L38.5044 17.8809L38.8053 19.5042C38.9557 20.3878 39.3855 21.7645 39.7508 22.5865ZM71.8776 19.833C72.028 20.6344 72.5008 22.0317 72.8876 22.9153L73.6182 24.5386L72.5438 25.3605L71.4908 26.203L70.4378 25.3605C69.8576 24.9084 69.3848 24.4975 69.3848 24.4564C69.3848 24.4358 69.6642 23.8194 70.0295 23.1002C70.7386 21.6412 71.3189 19.648 71.3189 18.7234C71.3189 17.7781 71.5552 18.2302 71.8776 19.833ZM11.1483 28.525C17.2083 33.7648 26.7927 33.7648 32.8742 28.5044L34.1421 27.3948L34.7223 27.8058C35.0661 28.0318 35.4959 28.3811 35.6893 28.6072C36.0546 28.977 36.0331 29.0387 35.5174 29.7784C33.6048 32.4497 32.6163 37.1142 33.261 40.3403L33.4329 41.2034L18.7986 41.1623L4.16423 41.1006L3.90635 39.6622C3.43358 37.1553 4.0138 34.3402 5.51806 31.7511C6.27019 30.4565 9.17128 27.4359 9.64404 27.4359C9.79447 27.4359 10.4606 27.9291 11.1483 28.525ZM44.3066 28.6894C46.0687 30.1278 48.9913 31.5456 51.2262 32.0799C53.1817 32.5319 56.7275 32.5319 58.7475 32.0799C60.9179 31.5867 63.862 30.1483 65.6886 28.6688L67.2573 27.4154L67.9665 27.9085C70.0295 29.4291 71.5982 31.5045 72.5438 33.9703C73.2099 35.6553 73.4463 38.5732 73.038 40.1554L72.7801 41.2034H55.0083H37.215L36.9787 40.1554C36.3984 37.7718 36.9142 34.5662 38.268 32.1004C38.8697 30.9908 42.1791 27.4359 42.6089 27.4359C42.6734 27.4359 43.447 27.9907 44.3066 28.6894ZM77.078 28.4839C83.224 33.7443 92.8728 33.7648 98.8469 28.5044C99.5131 27.9291 100.179 27.4359 100.308 27.4359C100.459 27.4359 101.318 28.1551 102.221 29.0181C105.401 32.0799 106.884 36.2512 106.089 39.8677L105.809 41.1006L91.1751 41.1623L76.5193 41.2034L76.7127 40.4431C77.0136 39.1896 76.9276 36.169 76.5623 34.5662C76.1755 32.9634 75.3804 31.1346 74.4778 29.7579L73.9191 28.8949L74.8216 28.1757C75.3159 27.7647 75.7672 27.4359 75.7887 27.4359C75.8316 27.4359 76.4119 27.9085 77.078 28.4839Z" fill="#B1FFB1" stroke="#676767" stroke-width="2" mask="url(#path-1-inside-1_546_18554)"/>
<mask id="path-2-inside-2_546_18554" fill="white">
<path d="M46.5937 37.3845C46.1853 37.4255 36.7711 38.5136 25.7019 39.7865C5.77728 42.0858 5.54085 42.1064 4.78857 42.6607C2.83265 44.0978 1.67199 47.3004 1.67199 51.3038C1.67199 53.2952 2.10186 55.1429 3.0046 56.9905L3.6709 58.3866L3.0046 59.7621C1.92991 61.9793 1.60751 63.6628 1.73647 66.3932C1.82245 68.7542 2.48875 71.3204 3.28401 72.388C3.54194 72.7575 3.49895 72.9012 2.81115 73.8046C-0.864261 78.6907 -0.950236 90.1464 2.6392 95.2173C3.11206 95.8947 3.90733 96.7159 4.38019 97.0444L5.26143 97.6398L35.2236 101.007L65.1857 104.394L72.1282 103.614L79.0491 102.813V106.386C79.0491 109.876 79.0491 109.937 79.5865 110.43C80.1238 110.964 80.9406 111.087 81.6069 110.738C81.8218 110.635 82.8965 109.116 83.9927 107.35C85.0889 105.605 86.0346 104.168 86.1206 104.168C86.185 104.189 87.0663 105.256 88.0765 106.55C89.0867 107.864 90.0754 109.013 90.2688 109.116C90.9136 109.444 91.7304 109.321 92.2677 108.788C92.8051 108.295 92.8051 108.233 92.8051 104.805C92.8051 101.335 92.8051 101.294 93.2994 101.191C93.8368 101.089 108.238 99.4464 108.667 99.4464C108.818 99.4464 109.183 99.2206 109.463 98.9332C110.494 97.9683 109.957 96.4696 108.495 96.1822C105.293 95.5663 103.745 86.0199 105.83 79.943C106.561 77.8489 107.335 76.8225 108.388 76.494C109.441 76.186 110 75.5701 110 74.7695C110 74.092 109.162 73.1681 108.538 73.1681C107.636 73.1681 106.561 70.0886 106.561 67.4198C106.561 64.7509 107.636 61.6714 108.538 61.6714C109.183 61.6714 110 60.7475 110 60.029C110 59.3104 109.183 58.3866 108.538 58.3866C107.636 58.3866 106.561 55.3071 106.561 52.6382C106.561 50.9548 107.055 48.7375 107.636 47.7521C107.894 47.3415 108.409 46.8488 108.775 46.6845C109.764 46.2329 110.15 45.4733 109.807 44.6931C109.656 44.3441 109.334 43.9746 109.076 43.8309C108.818 43.7077 96.2226 42.209 81.091 40.505C54.138 37.4666 49.2589 37.0355 46.5937 37.3845ZM71.9562 42.8044C83.2404 44.0567 92.6331 45.1243 92.8051 45.1858C92.977 45.2474 86.9373 46.0276 79.3715 46.9104L65.6156 48.5117L44.2294 46.1507C32.4724 44.8574 22.6713 43.7282 22.4564 43.6461C21.9405 43.4408 46.8731 40.5871 49.3879 40.5461C50.785 40.5256 57.8994 41.2441 71.9562 42.8044ZM10.6563 45.6786L12.8917 45.9249L12.7412 46.5614C11.9245 50.1336 11.817 52.5356 12.2899 55.5124C12.4403 56.4773 12.5478 57.278 12.5263 57.319C12.3758 57.4833 6.723 56.6826 6.57254 56.4773C4.83156 54.0548 4.63811 48.9428 6.18566 46.0686C6.63702 45.2269 6.65852 45.2064 7.53976 45.3296C8.03411 45.3911 9.45269 45.5554 10.6563 45.6786ZM38.7485 48.8402C50.3336 50.1336 60.1562 51.2422 60.5861 51.3243L61.3599 51.4269L60.844 53.0077C59.9413 55.6972 59.9628 59.3515 60.887 62.4104C61.016 62.8005 60.4141 62.7595 42.5099 60.7475C29.0764 59.2283 23.9394 58.5919 23.8105 58.3866C23.4021 57.7502 23.1012 54.527 23.2516 52.0634C23.3806 49.5793 23.3806 49.5382 22.8647 49.0455C22.1554 48.3885 21.1667 48.368 20.5004 49.0249C20.0706 49.415 19.9631 49.8051 19.8341 51.3243C19.6622 53.1309 19.7911 56.2104 20.0706 57.5449L20.221 58.2429L18.7379 58.0992C16.4381 57.8733 16.3307 57.8117 16.0727 56.97C15.2775 54.2601 15.256 50.113 16.0512 47.6905C16.4811 46.4176 16.5241 46.356 17.0829 46.4176C17.4268 46.4587 27.1635 47.5468 38.7485 48.8402ZM103.874 47.8547C103.788 48.06 103.573 48.9634 103.401 49.8667C102.95 52.125 103.122 55.1018 103.831 57.1959L104.369 58.7972L103.681 58.8998C103.315 58.9614 94.5461 59.9674 84.2076 61.1581L65.4007 63.3138L64.9278 62.8005C63.3803 61.1376 63.1653 55.7793 64.5194 52.9256L65.0353 51.8786L67.1417 51.6117C85.2178 49.5177 102.542 47.5468 103.208 47.5263C103.896 47.5057 104.003 47.5673 103.874 47.8547ZM28.8615 62.5131C40.2101 63.786 49.5169 64.833 49.5384 64.8535C49.5598 64.8535 49.3879 65.6131 49.13 66.4959C48.6356 68.282 48.4637 72.4701 48.8076 74.9748L48.9795 76.2681L47.8404 76.145C45.9919 75.9397 45.7985 75.8781 45.5405 75.2827C44.7453 73.435 44.4444 69.8217 44.8742 67.6045C45.1322 66.2906 44.8957 65.531 44.1005 65.182C42.6604 64.5661 41.8221 65.2641 41.4352 67.4403C41.1343 69.1032 41.2418 72.3469 41.6502 74.1536C41.8006 74.7489 41.8651 75.2827 41.8006 75.3443C41.5857 75.5496 6.74449 71.5052 6.57254 71.2588C4.83156 68.8158 4.63811 63.7244 6.18566 60.8502C6.63702 60.029 6.68001 59.9879 7.43229 60.0906C7.86216 60.1522 17.5128 61.2402 28.8615 62.5131ZM103.874 62.6363C103.788 62.8416 103.573 63.7449 103.401 64.6482C102.95 66.9065 103.122 69.9449 103.831 71.9569C104.132 72.7986 104.347 73.5171 104.304 73.5582C104.261 73.5993 95.4918 74.6257 84.8094 75.8575L65.4007 78.0953L64.9278 77.5821C63.3803 75.9191 63.1653 70.5608 64.5194 67.7072L65.0353 66.6601L67.2491 66.3932C83.4983 64.484 102.542 62.3283 103.208 62.3078C103.896 62.2873 104.003 62.3489 103.874 62.6363ZM57.1901 65.6747C58.7591 65.8595 60.3282 66.0442 60.6936 66.0853L61.3814 66.188L60.844 67.7893C59.9413 70.4787 59.9628 74.133 60.887 77.192L61.016 77.6026L56.9752 77.1304C54.7613 76.884 52.8699 76.6787 52.7839 76.6582C52.7194 76.6582 52.483 75.7754 52.2895 74.6873C51.7952 72.08 51.9242 68.7131 52.6119 66.7423C53.1923 65.1204 52.8699 65.2025 57.1901 65.6747ZM8.80788 75.0363C10.0545 75.2006 10.6778 75.3648 10.6133 75.5085C9.99003 76.9251 9.15178 79.9225 8.85087 81.8112C8.59295 83.5768 8.52847 84.8496 8.61444 87.0258C8.7434 89.5305 8.91535 90.6801 9.7536 94.3345L9.88257 94.8682L8.09859 94.6424C6.35761 94.4166 6.29313 94.3961 5.60533 93.5338C2.61771 89.7768 2.76817 78.9781 5.84176 75.4675C6.52956 74.7079 6.33611 74.7489 8.80788 75.0363ZM16.5456 75.9397L17.5343 76.0628L17.0185 77.541C15.213 82.4887 14.9551 88.3397 16.3092 93.698C16.5241 94.6424 16.6746 95.4431 16.6316 95.5047C16.5671 95.5457 15.9438 95.5252 15.213 95.4431C13.9449 95.2994 13.8589 95.2583 13.558 94.5398C13.3645 94.1292 12.9777 92.9179 12.6767 91.8503C12.1824 90.0848 12.1179 89.5099 12.1179 85.8967C12.0964 81.4417 12.3543 80.0046 13.7514 77.0483C14.3747 75.7344 14.4607 75.6112 14.9766 75.7138C15.2775 75.7754 15.9868 75.8575 16.5456 75.9397ZM32.9882 77.7463C39.2859 78.4648 44.4874 79.1013 44.5518 79.1629C44.6163 79.2245 44.4229 80.0867 44.122 81.0927C42.6174 86.0609 42.5529 92.1378 43.993 97.106C44.2294 97.8861 44.3799 98.5636 44.3154 98.6047C44.2509 98.6663 38.9205 98.112 32.4509 97.3729L20.6939 96.059L20.0921 94.355C18.7594 90.5364 18.5015 84.5212 19.5117 80.8668C19.9631 79.245 21.1667 76.4529 21.4247 76.4529C21.4891 76.4529 26.7121 77.0483 32.9882 77.7463ZM102.864 78.1364C101.789 80.8463 101.532 82.5298 101.532 86.5126C101.532 90.6186 101.768 91.9325 103.015 94.7656C103.337 95.4841 103.638 96.2027 103.681 96.3669C103.767 96.6338 102.907 96.7775 98.3075 97.2908L92.8051 97.9272V93.0411V88.155L93.4069 88.0523C94.3956 87.847 95.0404 87.4569 95.2554 86.9026C95.5348 86.102 95.2554 85.3218 94.5246 84.9728C93.9228 84.6649 93.3209 84.7265 85.8841 85.5887C78.7267 86.4099 77.8455 86.5536 77.3941 86.9642C76.8998 87.3954 76.7493 88.1755 77.0287 88.8735C77.2007 89.2841 78.3613 89.8589 78.7482 89.7152C79.0062 89.6126 79.0491 90.3722 79.0491 94.5192V99.4464L78.5763 99.5285C78.2969 99.5901 75.1373 99.9802 71.5264 100.37L64.9708 101.13L64.283 100.35C63.5307 99.5285 62.8859 98.0914 62.3271 95.9769C61.8542 94.0881 61.8542 88.3808 62.3271 86.492C62.9074 84.3569 63.5307 82.9404 64.283 82.1397L64.9708 81.4006L83.5628 79.2655C93.7938 78.0748 102.413 77.1099 102.735 77.0893L103.294 77.0688L102.864 78.1364ZM51.4943 79.8403C51.5158 79.8609 51.3008 80.7026 50.9999 81.7086C49.4954 86.6563 49.4094 92.3841 50.8065 97.3729C51.0859 98.4405 51.2793 99.3438 51.2364 99.4054C51.1719 99.4464 50.5486 99.4259 49.8393 99.3438C48.5282 99.2001 48.5282 99.2001 48.0768 98.2557C47.8404 97.7219 47.3675 96.408 47.0666 95.3404C46.5507 93.5338 46.5078 93.0821 46.5078 89.1815C46.5292 84.7059 46.6797 83.7821 47.8833 80.7026L48.3562 79.4913L49.9037 79.635C50.742 79.7172 51.4513 79.7993 51.4943 79.8403ZM58.4797 80.6C60.4141 80.8053 60.7795 80.9079 60.6936 81.1748C60.6506 81.339 60.3497 82.0576 60.0273 82.7761C58.8021 85.5682 58.5657 86.9437 58.5442 90.9265C58.5227 94.9093 58.7591 96.408 59.7693 99.1179L60.3067 100.514L59.318 100.391C58.7591 100.329 57.663 100.227 56.8677 100.144L55.4061 100.001L54.7613 98.3994C53.5147 95.3199 53.3642 94.3961 53.3857 89.9C53.3857 86.143 53.4287 85.6298 53.9446 83.8437C54.7398 81.0721 55.1052 80.3536 55.664 80.3536C55.922 80.3536 57.1901 80.4562 58.4797 80.6ZM89.3661 95.5457C89.3661 99.3848 89.3231 102.526 89.2801 102.526C89.2371 102.526 88.6998 101.869 88.0765 101.089C86.2925 98.7895 85.3468 98.8511 83.7563 101.356C83.2189 102.238 82.7031 102.998 82.6171 103.08C82.5526 103.142 82.4881 100.062 82.4881 96.2232V89.243L85.2393 88.9351C86.7439 88.7709 88.2914 88.6066 88.6783 88.5861L89.3661 88.5656V95.5457Z"/>
</mask>
<path d="M46.5937 37.3845C46.1853 37.4255 36.7711 38.5136 25.7019 39.7865C5.77728 42.0858 5.54085 42.1064 4.78857 42.6607C2.83265 44.0978 1.67199 47.3004 1.67199 51.3038C1.67199 53.2952 2.10186 55.1429 3.0046 56.9905L3.6709 58.3866L3.0046 59.7621C1.92991 61.9793 1.60751 63.6628 1.73647 66.3932C1.82245 68.7542 2.48875 71.3204 3.28401 72.388C3.54194 72.7575 3.49895 72.9012 2.81115 73.8046C-0.864261 78.6907 -0.950236 90.1464 2.6392 95.2173C3.11206 95.8947 3.90733 96.7159 4.38019 97.0444L5.26143 97.6398L35.2236 101.007L65.1857 104.394L72.1282 103.614L79.0491 102.813V106.386C79.0491 109.876 79.0491 109.937 79.5865 110.43C80.1238 110.964 80.9406 111.087 81.6069 110.738C81.8218 110.635 82.8965 109.116 83.9927 107.35C85.0889 105.605 86.0346 104.168 86.1206 104.168C86.185 104.189 87.0663 105.256 88.0765 106.55C89.0867 107.864 90.0754 109.013 90.2688 109.116C90.9136 109.444 91.7304 109.321 92.2677 108.788C92.8051 108.295 92.8051 108.233 92.8051 104.805C92.8051 101.335 92.8051 101.294 93.2994 101.191C93.8368 101.089 108.238 99.4464 108.667 99.4464C108.818 99.4464 109.183 99.2206 109.463 98.9332C110.494 97.9683 109.957 96.4696 108.495 96.1822C105.293 95.5663 103.745 86.0199 105.83 79.943C106.561 77.8489 107.335 76.8225 108.388 76.494C109.441 76.186 110 75.5701 110 74.7695C110 74.092 109.162 73.1681 108.538 73.1681C107.636 73.1681 106.561 70.0886 106.561 67.4198C106.561 64.7509 107.636 61.6714 108.538 61.6714C109.183 61.6714 110 60.7475 110 60.029C110 59.3104 109.183 58.3866 108.538 58.3866C107.636 58.3866 106.561 55.3071 106.561 52.6382C106.561 50.9548 107.055 48.7375 107.636 47.7521C107.894 47.3415 108.409 46.8488 108.775 46.6845C109.764 46.2329 110.15 45.4733 109.807 44.6931C109.656 44.3441 109.334 43.9746 109.076 43.8309C108.818 43.7077 96.2226 42.209 81.091 40.505C54.138 37.4666 49.2589 37.0355 46.5937 37.3845ZM71.9562 42.8044C83.2404 44.0567 92.6331 45.1243 92.8051 45.1858C92.977 45.2474 86.9373 46.0276 79.3715 46.9104L65.6156 48.5117L44.2294 46.1507C32.4724 44.8574 22.6713 43.7282 22.4564 43.6461C21.9405 43.4408 46.8731 40.5871 49.3879 40.5461C50.785 40.5256 57.8994 41.2441 71.9562 42.8044ZM10.6563 45.6786L12.8917 45.9249L12.7412 46.5614C11.9245 50.1336 11.817 52.5356 12.2899 55.5124C12.4403 56.4773 12.5478 57.278 12.5263 57.319C12.3758 57.4833 6.723 56.6826 6.57254 56.4773C4.83156 54.0548 4.63811 48.9428 6.18566 46.0686C6.63702 45.2269 6.65852 45.2064 7.53976 45.3296C8.03411 45.3911 9.45269 45.5554 10.6563 45.6786ZM38.7485 48.8402C50.3336 50.1336 60.1562 51.2422 60.5861 51.3243L61.3599 51.4269L60.844 53.0077C59.9413 55.6972 59.9628 59.3515 60.887 62.4104C61.016 62.8005 60.4141 62.7595 42.5099 60.7475C29.0764 59.2283 23.9394 58.5919 23.8105 58.3866C23.4021 57.7502 23.1012 54.527 23.2516 52.0634C23.3806 49.5793 23.3806 49.5382 22.8647 49.0455C22.1554 48.3885 21.1667 48.368 20.5004 49.0249C20.0706 49.415 19.9631 49.8051 19.8341 51.3243C19.6622 53.1309 19.7911 56.2104 20.0706 57.5449L20.221 58.2429L18.7379 58.0992C16.4381 57.8733 16.3307 57.8117 16.0727 56.97C15.2775 54.2601 15.256 50.113 16.0512 47.6905C16.4811 46.4176 16.5241 46.356 17.0829 46.4176C17.4268 46.4587 27.1635 47.5468 38.7485 48.8402ZM103.874 47.8547C103.788 48.06 103.573 48.9634 103.401 49.8667C102.95 52.125 103.122 55.1018 103.831 57.1959L104.369 58.7972L103.681 58.8998C103.315 58.9614 94.5461 59.9674 84.2076 61.1581L65.4007 63.3138L64.9278 62.8005C63.3803 61.1376 63.1653 55.7793 64.5194 52.9256L65.0353 51.8786L67.1417 51.6117C85.2178 49.5177 102.542 47.5468 103.208 47.5263C103.896 47.5057 104.003 47.5673 103.874 47.8547ZM28.8615 62.5131C40.2101 63.786 49.5169 64.833 49.5384 64.8535C49.5598 64.8535 49.3879 65.6131 49.13 66.4959C48.6356 68.282 48.4637 72.4701 48.8076 74.9748L48.9795 76.2681L47.8404 76.145C45.9919 75.9397 45.7985 75.8781 45.5405 75.2827C44.7453 73.435 44.4444 69.8217 44.8742 67.6045C45.1322 66.2906 44.8957 65.531 44.1005 65.182C42.6604 64.5661 41.8221 65.2641 41.4352 67.4403C41.1343 69.1032 41.2418 72.3469 41.6502 74.1536C41.8006 74.7489 41.8651 75.2827 41.8006 75.3443C41.5857 75.5496 6.74449 71.5052 6.57254 71.2588C4.83156 68.8158 4.63811 63.7244 6.18566 60.8502C6.63702 60.029 6.68001 59.9879 7.43229 60.0906C7.86216 60.1522 17.5128 61.2402 28.8615 62.5131ZM103.874 62.6363C103.788 62.8416 103.573 63.7449 103.401 64.6482C102.95 66.9065 103.122 69.9449 103.831 71.9569C104.132 72.7986 104.347 73.5171 104.304 73.5582C104.261 73.5993 95.4918 74.6257 84.8094 75.8575L65.4007 78.0953L64.9278 77.5821C63.3803 75.9191 63.1653 70.5608 64.5194 67.7072L65.0353 66.6601L67.2491 66.3932C83.4983 64.484 102.542 62.3283 103.208 62.3078C103.896 62.2873 104.003 62.3489 103.874 62.6363ZM57.1901 65.6747C58.7591 65.8595 60.3282 66.0442 60.6936 66.0853L61.3814 66.188L60.844 67.7893C59.9413 70.4787 59.9628 74.133 60.887 77.192L61.016 77.6026L56.9752 77.1304C54.7613 76.884 52.8699 76.6787 52.7839 76.6582C52.7194 76.6582 52.483 75.7754 52.2895 74.6873C51.7952 72.08 51.9242 68.7131 52.6119 66.7423C53.1923 65.1204 52.8699 65.2025 57.1901 65.6747ZM8.80788 75.0363C10.0545 75.2006 10.6778 75.3648 10.6133 75.5085C9.99003 76.9251 9.15178 79.9225 8.85087 81.8112C8.59295 83.5768 8.52847 84.8496 8.61444 87.0258C8.7434 89.5305 8.91535 90.6801 9.7536 94.3345L9.88257 94.8682L8.09859 94.6424C6.35761 94.4166 6.29313 94.3961 5.60533 93.5338C2.61771 89.7768 2.76817 78.9781 5.84176 75.4675C6.52956 74.7079 6.33611 74.7489 8.80788 75.0363ZM16.5456 75.9397L17.5343 76.0628L17.0185 77.541C15.213 82.4887 14.9551 88.3397 16.3092 93.698C16.5241 94.6424 16.6746 95.4431 16.6316 95.5047C16.5671 95.5457 15.9438 95.5252 15.213 95.4431C13.9449 95.2994 13.8589 95.2583 13.558 94.5398C13.3645 94.1292 12.9777 92.9179 12.6767 91.8503C12.1824 90.0848 12.1179 89.5099 12.1179 85.8967C12.0964 81.4417 12.3543 80.0046 13.7514 77.0483C14.3747 75.7344 14.4607 75.6112 14.9766 75.7138C15.2775 75.7754 15.9868 75.8575 16.5456 75.9397ZM32.9882 77.7463C39.2859 78.4648 44.4874 79.1013 44.5518 79.1629C44.6163 79.2245 44.4229 80.0867 44.122 81.0927C42.6174 86.0609 42.5529 92.1378 43.993 97.106C44.2294 97.8861 44.3799 98.5636 44.3154 98.6047C44.2509 98.6663 38.9205 98.112 32.4509 97.3729L20.6939 96.059L20.0921 94.355C18.7594 90.5364 18.5015 84.5212 19.5117 80.8668C19.9631 79.245 21.1667 76.4529 21.4247 76.4529C21.4891 76.4529 26.7121 77.0483 32.9882 77.7463ZM102.864 78.1364C101.789 80.8463 101.532 82.5298 101.532 86.5126C101.532 90.6186 101.768 91.9325 103.015 94.7656C103.337 95.4841 103.638 96.2027 103.681 96.3669C103.767 96.6338 102.907 96.7775 98.3075 97.2908L92.8051 97.9272V93.0411V88.155L93.4069 88.0523C94.3956 87.847 95.0404 87.4569 95.2554 86.9026C95.5348 86.102 95.2554 85.3218 94.5246 84.9728C93.9228 84.6649 93.3209 84.7265 85.8841 85.5887C78.7267 86.4099 77.8455 86.5536 77.3941 86.9642C76.8998 87.3954 76.7493 88.1755 77.0287 88.8735C77.2007 89.2841 78.3613 89.8589 78.7482 89.7152C79.0062 89.6126 79.0491 90.3722 79.0491 94.5192V99.4464L78.5763 99.5285C78.2969 99.5901 75.1373 99.9802 71.5264 100.37L64.9708 101.13L64.283 100.35C63.5307 99.5285 62.8859 98.0914 62.3271 95.9769C61.8542 94.0881 61.8542 88.3808 62.3271 86.492C62.9074 84.3569 63.5307 82.9404 64.283 82.1397L64.9708 81.4006L83.5628 79.2655C93.7938 78.0748 102.413 77.1099 102.735 77.0893L103.294 77.0688L102.864 78.1364ZM51.4943 79.8403C51.5158 79.8609 51.3008 80.7026 50.9999 81.7086C49.4954 86.6563 49.4094 92.3841 50.8065 97.3729C51.0859 98.4405 51.2793 99.3438 51.2364 99.4054C51.1719 99.4464 50.5486 99.4259 49.8393 99.3438C48.5282 99.2001 48.5282 99.2001 48.0768 98.2557C47.8404 97.7219 47.3675 96.408 47.0666 95.3404C46.5507 93.5338 46.5078 93.0821 46.5078 89.1815C46.5292 84.7059 46.6797 83.7821 47.8833 80.7026L48.3562 79.4913L49.9037 79.635C50.742 79.7172 51.4513 79.7993 51.4943 79.8403ZM58.4797 80.6C60.4141 80.8053 60.7795 80.9079 60.6936 81.1748C60.6506 81.339 60.3497 82.0576 60.0273 82.7761C58.8021 85.5682 58.5657 86.9437 58.5442 90.9265C58.5227 94.9093 58.7591 96.408 59.7693 99.1179L60.3067 100.514L59.318 100.391C58.7591 100.329 57.663 100.227 56.8677 100.144L55.4061 100.001L54.7613 98.3994C53.5147 95.3199 53.3642 94.3961 53.3857 89.9C53.3857 86.143 53.4287 85.6298 53.9446 83.8437C54.7398 81.0721 55.1052 80.3536 55.664 80.3536C55.922 80.3536 57.1901 80.4562 58.4797 80.6ZM89.3661 95.5457C89.3661 99.3848 89.3231 102.526 89.2801 102.526C89.2371 102.526 88.6998 101.869 88.0765 101.089C86.2925 98.7895 85.3468 98.8511 83.7563 101.356C83.2189 102.238 82.7031 102.998 82.6171 103.08C82.5526 103.142 82.4881 100.062 82.4881 96.2232V89.243L85.2393 88.9351C86.7439 88.7709 88.2914 88.6066 88.6783 88.5861L89.3661 88.5656V95.5457Z" fill="#8BDBF0" stroke="#676767" stroke-width="2" mask="url(#path-2-inside-2_546_18554)"/>
</svg>
