<svg width="110" height="111" viewBox="0 0 110 111" fill="none" xmlns="http://www.w3.org/2000/svg">
<g clip-path="url(#clip0_546_5575)">
<path d="M110 0.93457V31.4424H109.785C108.807 25.9594 101.331 25.1084 98.3205 29.2942C96.7708 31.4486 97.1094 34.0959 97.1094 36.5986V49.2744C97.1094 50.916 97.5507 53.3118 96.9797 54.8604C96.1715 57.0526 92.9456 59.2389 91.3086 60.876L79.0625 73.1221C77.3367 74.8479 74.667 76.7366 73.5449 78.9229C72.7931 80.3872 73.2617 82.8951 73.2617 84.5088L73.2617 97.1846V106.638C73.2617 108.189 73.0065 109.666 74.3359 110.72V110.935L35.6641 110.935V110.72C36.9935 109.666 36.7383 108.189 36.7383 106.638V97.1846V84.5088C36.7383 82.8951 37.2069 80.3872 36.4551 78.9229C35.333 76.7366 32.6633 74.8479 30.9375 73.1221L18.6914 60.876C17.0543 59.2389 13.8286 57.0526 13.0202 54.8604C12.4493 53.3118 12.8906 50.916 12.8906 49.2744V36.5986C12.8906 34.0959 13.2292 31.4486 11.6796 29.2942C8.66852 25.1084 1.19281 25.9594 0.214844 31.4424H0V0.93457L51.5625 0.93457V1.14941C35.7691 1.82763 24.6832 19.5962 28.0371 34.2354C28.8279 37.6875 30.2322 40.9761 32.2328 43.9033C33.0808 45.1443 35.4496 46.9743 35.6896 48.415C35.8553 49.4095 34.5374 50.6685 34.0186 51.4229C32.3849 53.798 30.7173 56.1509 29.0641 58.5127C28.4367 59.4088 27.3157 60.5339 27.5722 61.7351C27.8893 63.2182 29.4706 63.4479 30.7227 63.4539C32.7368 63.4638 37.3134 62.5879 39.0178 63.675C39.7332 64.1313 40.08 65.305 40.4437 66.0322C41.4977 68.1405 42.9135 73.0645 45.1258 74.1247C47.2476 75.1414 48.1338 71.8824 48.7092 70.5439C50.7882 65.7082 52.8814 60.8416 54.7852 55.9346H55.2148C57.1186 60.8416 59.2118 65.708 61.2908 70.5439C61.8561 71.859 62.8205 75.1079 64.8742 74.1247C67.0863 73.0656 68.5025 68.1396 69.5563 66.0322C69.92 65.305 70.2668 64.1313 70.9822 63.675C72.6866 62.5879 77.2632 63.4638 79.2773 63.4539C80.5295 63.4479 82.1107 63.2182 82.4278 61.7351C82.6843 60.5339 81.5633 59.4088 80.9359 58.5127C79.2827 56.1509 77.6151 53.798 75.9814 51.4229C75.4626 50.6685 74.1447 49.4095 74.3104 48.415C74.5504 46.9743 76.9192 45.1443 77.7672 43.9033C79.7678 40.9761 81.1721 37.6875 81.9629 34.2354C85.3168 19.5962 74.2309 1.82762 58.4375 1.14941L63.1641 0.93457L73.6914 0.93457L110 0.93457Z" fill="white"/>
<path d="M55.5964 55.4346H55.2148H54.7851H54.4035L54.3029 55.8027C53.3183 59.4024 51.6781 62.9873 50.0588 66.5266C49.4402 67.8788 48.8246 69.2242 48.2498 70.5613C48.168 70.7516 48.0863 70.9554 48.0021 71.1655C47.7316 71.8406 47.4349 72.5807 47.0226 73.1499C46.7604 73.5119 46.4919 73.7418 46.2152 73.839C45.9588 73.9291 45.6232 73.9308 45.1546 73.685L44.9223 74.1277L45.1545 73.6849C44.7324 73.4636 44.3099 73.0369 43.8917 72.4356C43.4776 71.8403 43.0939 71.1121 42.735 70.3361C42.3832 69.5754 42.0623 68.7845 41.7622 68.0448L41.7454 68.0036C41.4439 67.2604 41.1587 66.5591 40.8909 66.0235L40.4437 66.2471L40.8909 66.0235C40.806 65.8537 40.7214 65.6596 40.6258 65.4406L40.5961 65.3724C40.4907 65.1312 40.3739 64.8668 40.2417 64.6101C39.9845 64.1106 39.6309 63.5605 39.095 63.2443C38.572 62.9358 37.9029 62.7845 37.2087 62.7132C36.5065 62.6411 35.7311 62.6466 34.9652 62.6832C34.2794 62.716 33.5873 62.7747 32.951 62.8286C32.8761 62.835 32.802 62.8412 32.7287 62.8474C32.0246 62.9067 31.4112 62.9543 30.9377 62.9541C30.8587 62.9541 30.7802 62.9544 30.7022 62.9547C30.1866 62.9567 29.6929 62.9586 29.2441 62.8626C28.7523 62.7574 28.3864 62.5482 28.1608 62.1304L27.7209 62.3681L28.1608 62.1304C27.8723 61.5965 27.9501 61.0414 28.2521 60.4194C28.4842 59.9414 28.8095 59.4976 29.134 59.055C29.2487 58.8985 29.3633 58.7422 29.4737 58.5846C29.9762 57.8666 30.4811 57.1487 30.9863 56.4302C32.0902 54.8604 33.1959 53.288 34.284 51.7062C34.3961 51.5433 34.5506 51.3518 34.7356 51.1243L34.7586 51.096C34.9327 50.882 35.1271 50.6429 35.3078 50.3965C35.6655 49.9087 36.0607 49.2764 36.068 48.6355C36.0722 48.267 35.9341 47.9244 35.7633 47.6332C35.5907 47.3387 35.3611 47.0573 35.1297 46.8024C34.9246 46.5763 34.7049 46.3571 34.5076 46.1602C34.4819 46.1346 34.4566 46.1094 34.4318 46.0846C34.2082 45.861 34.0289 45.6776 33.9075 45.5252L33.9074 45.5252C32.3671 43.5934 31.0534 41.46 30.0806 39.1943L30.0806 39.1943C26.07 29.8561 27.7763 18.7422 34.2162 10.9203C43.623 -0.505437 61.5774 -1.72794 72.7215 7.82398L73.0469 7.44435L72.7215 7.82399C77.8579 12.2265 80.959 18.4051 81.9131 25.0679C82.7085 30.6225 81.4342 36.6051 78.7714 41.5166L79.2109 41.7549L78.7714 41.5166C77.876 43.1683 76.7934 44.718 75.5781 46.1591L75.5781 46.1591C75.4748 46.2816 75.3361 46.4192 75.165 46.5874L75.1494 46.6027C74.9889 46.7605 74.8062 46.9401 74.6374 47.1296C74.3072 47.5002 73.9249 48.0191 73.932 48.6356M55.5964 55.4346L75.9604 46.4814C75.8363 46.6286 75.6752 46.787 75.5041 46.9551C75.0063 47.4446 74.4249 48.0162 74.432 48.6299C74.4398 49.3179 75.0903 50.1178 75.6315 50.7833C75.8212 51.0165 75.9975 51.2332 76.1279 51.4228M55.5964 55.4346L55.6971 55.8027C56.6817 59.4024 58.3219 62.9874 59.9412 66.5267C60.5598 67.8788 61.1754 69.2242 61.7502 70.5613C61.8226 70.7298 61.8959 70.9099 61.9717 71.0962C62.25 71.7799 62.5623 72.5474 62.9915 73.132C63.2577 73.4946 63.5297 73.7273 63.8077 73.827C64.0642 73.919 64.393 73.9222 64.8455 73.6849L65.0777 74.1277M55.5964 55.4346L61.2908 70.7588M73.932 48.6356L74.4319 48.6299L73.932 48.6355C73.932 48.6356 73.932 48.6356 73.932 48.6356ZM73.932 48.6356C73.9393 49.2765 74.3345 49.9087 74.6922 50.3965C74.8728 50.6429 75.0672 50.8819 75.2412 51.0958L75.2644 51.1243C75.4494 51.3518 75.6039 51.5433 75.716 51.7062M75.716 51.7062L76.1279 51.4228M75.716 51.7062C75.716 51.7062 75.716 51.7063 75.716 51.7063L76.1279 51.4228M75.716 51.7062C76.8041 53.2879 77.9097 54.8602 79.0135 56.4299C79.5188 57.1485 80.0237 57.8665 80.5263 58.5846L80.9343 58.299L80.5263 58.5846C80.6367 58.7422 80.7513 58.8985 80.866 59.055C81.1905 59.4976 81.5158 59.9414 81.7479 60.4194C82.0499 61.0414 82.1277 61.5965 81.8392 62.1304L82.2788 62.3679L81.8392 62.1304C81.6136 62.5482 81.2477 62.7574 80.7559 62.8626C80.307 62.9586 79.8133 62.9567 79.2978 62.9547C79.2198 62.9544 79.1412 62.9541 79.0623 62.9541C78.5888 62.9543 77.9754 62.9067 77.2713 62.8474C77.198 62.8412 77.1239 62.835 77.049 62.8286C76.4127 62.7747 75.7206 62.716 75.0348 62.6832C74.2688 62.6466 73.4935 62.6411 72.7913 62.7132C72.097 62.7845 71.428 62.9358 70.905 63.2443C70.3691 63.5605 70.0155 64.1106 69.7583 64.6101C69.6261 64.8668 69.5093 65.1312 69.4039 65.3724C69.3939 65.3954 69.3839 65.4182 69.3741 65.4407C69.2786 65.6597 69.194 65.8537 69.1091 66.0235L69.5563 66.2471M76.1279 51.4228C77.2145 53.0023 78.3177 54.5711 79.4207 56.1397C79.9263 56.8588 80.432 57.5778 80.9359 58.2978C81.0327 58.4361 81.1383 58.58 81.2475 58.7289C82.0197 59.7817 82.9737 61.0823 82.2791 62.3681C81.6861 63.466 80.3883 63.4599 79.2902 63.4548C79.2132 63.4544 79.1372 63.4541 79.0625 63.4541C78.5117 63.4543 77.7939 63.3935 77.007 63.3268C74.9453 63.1522 72.4094 62.9373 71.159 63.675C70.527 64.0479 70.1548 64.9014 69.8317 65.6423C69.7375 65.8583 69.6474 66.0648 69.5563 66.2471M69.5563 66.2471L69.1091 66.0235C68.8413 66.5591 68.5561 67.2604 68.2546 68.0036L68.2378 68.0448C67.9377 68.7844 67.6168 69.5754 67.265 70.3361C66.9061 71.1121 66.5224 71.8403 66.1083 72.4356C65.6901 73.0369 65.2675 73.4636 64.8455 73.6849L65.0777 74.1277M69.5563 66.2471C69.2939 66.7719 69.0107 67.47 68.6994 68.2371C67.7902 70.4778 66.6421 73.3074 65.0777 74.1277M65.0777 74.1277C63.0866 75.1719 62.1252 72.8044 61.4944 71.2512C61.4226 71.0744 61.3551 70.9082 61.2908 70.7588M61.2908 70.7588C60.7264 69.4458 60.1175 68.115 59.5027 66.7713C57.9014 63.2714 56.2601 59.6839 55.2594 56.0959C55.2621 56.0861 55.2648 56.0763 55.2674 56.0665L55.2499 56.0617C55.2381 56.0193 55.2264 55.9769 55.2148 55.9346H54.7851C54.7736 55.9769 54.7619 56.0193 54.7501 56.0617L54.7325 56.0665C54.7352 56.0763 54.7379 56.0861 54.7406 56.0959L61.2908 70.7588Z" fill="#B1FFB1" stroke="#676767"/>
<path d="M73.948 14.975L73.948 14.9749C72.3094 12.6778 70.1954 10.5901 67.8333 9.05957C64.7628 7.07002 61.3474 5.88161 57.7253 5.38856C37.7092 2.66394 24.5691 26.7493 36.5202 42.5272C38.2113 44.7598 40.3914 46.7731 42.7937 48.1965L42.5388 48.6267L42.7937 48.1965C45.7965 49.9759 49.0223 51.0959 52.481 51.5097C71.967 53.84 85.25 30.8183 73.948 14.975Z" fill="white" stroke="#676767"/>
<path d="M104.74 27.1013L104.74 27.1013C101.451 26.3996 98.0067 28.8052 97.644 32.141C97.252 35.7461 97.3726 39.4872 97.493 43.2228C97.5513 45.0319 97.6096 46.8396 97.6096 48.63C97.6096 49.0439 97.6459 49.5506 97.6885 50.1237L97.6931 50.1862C97.7339 50.7346 97.7784 51.3334 97.7947 51.9269C97.8115 52.5425 97.7987 53.1689 97.7161 53.7472C97.634 54.3218 97.4786 54.8817 97.1879 55.3422C96.4714 56.4771 95.4651 57.5125 94.436 58.4742C94.0237 58.8594 93.6136 59.2279 93.2132 59.5877C92.5915 60.1463 91.9933 60.6838 91.4476 61.2296L91.094 60.8761L91.4475 61.2296L79.846 72.8312C79.3794 73.2977 78.8235 73.7875 78.2489 74.288C78.1792 74.3487 78.1091 74.4097 78.0388 74.4708C77.5257 74.9172 77.0007 75.3739 76.4958 75.8447C75.336 76.9259 74.3511 78.0205 73.9098 79.1106L73.4463 78.9229L73.9098 79.1106C73.5043 80.112 73.4498 81.5111 73.5162 83.0278C73.5437 83.6568 73.5907 84.2889 73.6367 84.9067C73.6455 85.0251 73.6543 85.143 73.6629 85.2603C73.7158 85.983 73.762 86.6836 73.762 87.3018V105.134C73.762 105.445 73.7357 105.833 73.7084 106.237C73.6993 106.371 73.6902 106.507 73.6818 106.642C73.647 107.203 73.6229 107.788 73.6574 108.335C73.6923 108.887 73.785 109.36 73.9579 109.713C74.1227 110.049 74.3521 110.265 74.6901 110.36L74.6902 110.36C75.2872 110.529 76.0018 110.555 76.7757 110.531C77.071 110.522 77.3879 110.504 77.7066 110.487C78.1757 110.461 78.6487 110.435 79.0627 110.435H88.301C88.6098 110.435 88.9732 110.459 89.3413 110.484C89.3826 110.487 89.424 110.49 89.4654 110.492C89.8845 110.52 90.3165 110.546 90.736 110.544C91.6137 110.539 92.2733 110.405 92.6244 110.073L92.9678 110.437L92.6244 110.073C93.0075 109.711 93.1721 109.142 93.2147 108.409C93.2356 108.049 93.2261 107.675 93.2102 107.299C93.2066 107.212 93.2025 107.125 93.1985 107.037C93.1853 106.753 93.1721 106.467 93.1721 106.208L93.1721 98.6885C93.1721 98.4269 93.1588 98.1452 93.1445 97.8398L93.1431 97.8107C93.1284 97.4989 93.1132 97.1656 93.1136 96.8323C93.1146 96.1736 93.1755 95.4573 93.462 94.8288C93.9167 93.8313 94.6181 92.9042 95.3398 92.0429C95.6247 91.7029 95.908 91.3783 96.1841 91.0619C96.627 90.5544 97.0512 90.0682 97.4338 89.5739C99.0641 87.4678 100.71 85.3692 102.354 83.272C103.515 81.7915 104.676 80.3117 105.83 78.8305C106.17 78.3934 106.574 77.9294 106.975 77.4672C107.245 77.1571 107.513 76.8478 107.762 76.5481C108.406 75.7713 108.969 75 109.307 74.2137C109.626 73.4724 109.69 72.4681 109.657 71.3591C109.643 70.8648 109.61 70.3668 109.578 69.8765C109.574 69.824 109.571 69.7716 109.567 69.7193C109.532 69.1841 109.5 68.6566 109.5 68.1807V54.4307V39.1768C109.5 38.4231 109.534 37.6228 109.567 36.8242C109.589 36.3051 109.611 35.7867 109.623 35.2822C109.655 33.9746 109.629 32.7046 109.408 31.5352C108.982 29.2744 107.011 27.5858 104.74 27.1013ZM7.43109 27.093L7.43103 27.093C4.65884 26.593 1.58376 28.2508 0.739738 30.9473C0.153564 32.82 0.0836868 35.1066 0.171112 37.4801C0.205917 38.4249 0.266777 39.3949 0.326767 40.3511C0.414429 41.7483 0.500244 43.1161 0.500244 44.3331V65.3878C0.500244 66.0481 0.449974 66.8015 0.392738 67.5813C0.384529 67.6932 0.376167 67.8057 0.367767 67.9187C0.317154 68.5996 0.265175 69.2989 0.236221 69.994C0.167908 71.6343 0.235359 73.1475 0.693764 74.2137L0.693787 74.2138C1.06409 75.0754 1.6852 75.9186 2.39298 76.7671C2.65218 77.0778 2.92864 77.3953 3.2058 77.7136C3.66118 78.2366 4.11842 78.7617 4.50398 79.2624L4.10783 79.5675L4.50399 79.2624C5.78256 80.9228 7.20468 82.5727 8.65375 84.2539C9.34254 85.0531 10.0374 85.8593 10.7259 86.677C12.8504 89.2005 14.8961 91.8148 16.4117 94.5811C16.7738 95.242 16.8652 96.0005 16.8785 96.7028C16.8853 97.0574 16.872 97.4123 16.8579 97.7457C16.8562 97.7847 16.8545 97.8232 16.8529 97.8615C16.8402 98.1559 16.8284 98.4299 16.8284 98.6885V106.638C16.8284 106.846 16.8228 107.059 16.8171 107.274C16.8015 107.865 16.7856 108.468 16.8859 109.027C16.9517 109.393 17.0619 109.69 17.2269 109.913C17.3844 110.125 17.6086 110.293 17.9569 110.382C18.5665 110.537 19.2845 110.557 20.0568 110.531C20.3431 110.521 20.6465 110.505 20.9518 110.488C21.4305 110.461 21.914 110.435 22.344 110.435H31.5823C31.8815 110.435 32.2359 110.458 32.5958 110.482C32.6428 110.486 32.6898 110.489 32.7369 110.492C33.154 110.519 33.585 110.544 34.003 110.541C34.4224 110.537 34.8085 110.503 35.1361 110.421C35.4645 110.34 35.703 110.217 35.862 110.058L35.8621 110.058C36.0799 109.84 36.2519 109.445 36.356 108.859C36.4578 108.285 36.4829 107.6 36.4669 106.875C36.451 106.154 36.3951 105.416 36.342 104.739L36.3335 104.63C36.2843 104.005 36.2385 103.422 36.2385 102.985V85.5831C36.2385 85.0709 36.2808 84.4703 36.325 83.8521L36.3281 83.8086C36.3719 83.1964 36.4174 82.5597 36.432 81.9323C36.4626 80.618 36.35 79.4741 35.9063 78.7561L36.3316 78.4932L35.9062 78.7561C35.2463 77.6879 34.2961 76.6868 33.2549 75.7047C32.8493 75.3221 32.4222 74.9358 31.9959 74.5502C31.3545 73.9701 30.7152 73.3919 30.1545 72.8312L18.3381 61.0148C17.8433 60.52 17.2731 60.0215 16.6673 59.4918C16.2348 59.1137 15.7841 58.7197 15.3298 58.2999C14.2767 57.3268 13.2471 56.2494 12.6645 55.0841C12.2462 54.2475 12.2003 53.1283 12.2343 52.1054C12.2501 51.6287 12.2848 51.1487 12.3171 50.7022L12.3264 50.5737C12.3616 50.0848 12.3909 49.6463 12.3909 49.2745V37.4581C12.3909 36.9496 12.4115 36.4228 12.4336 35.897L12.4394 35.7607C12.4598 35.2772 12.4802 34.7949 12.4871 34.3144C12.5024 33.2604 12.4517 32.2551 12.2091 31.3582C11.5952 29.0893 9.74813 27.5106 7.43109 27.093Z" fill="#8BDBF0" stroke="#676767"/>
<path d="M96.6798 63.5943L96.5301 64.0714C95.78 63.8361 94.9678 63.9699 94.0928 64.4004C93.2144 64.8326 92.3172 65.5432 91.4376 66.3838C90.5609 67.2216 89.7239 68.1666 88.9599 69.0506C88.8265 69.2049 88.6949 69.358 88.5654 69.5086C87.9624 70.2098 87.406 70.8567 86.9357 71.3271L80.7052 77.5575C80.4539 77.8088 80.1752 78.0618 79.8976 78.3121C79.872 78.3351 79.8464 78.3582 79.8208 78.3813C79.5657 78.611 79.3118 78.8398 79.0669 79.075C78.5236 79.5968 78.0656 80.1132 77.7971 80.6503L77.3498 80.4267L77.797 80.6503C77.3899 81.4645 77.3219 82.751 77.385 84.1936C77.4122 84.8147 77.4617 85.4409 77.5096 86.0451C77.5162 86.1287 77.5228 86.2118 77.5292 86.2944C77.582 86.9674 77.629 87.6142 77.629 88.161L77.629 106.567H89.3048L89.3048 97.829C89.3048 97.5218 89.2858 97.1807 89.2647 96.8074L89.2635 96.787C89.243 96.4248 89.221 96.0362 89.2166 95.6488C89.2079 94.8714 89.2675 94.0239 89.6034 93.3174C90.0518 92.3743 90.7251 91.4864 91.4153 90.6586C91.6869 90.3327 91.9568 90.0209 92.2199 89.717C92.6436 89.2275 93.0495 88.7586 93.4163 88.2847L93.8117 88.5907L93.4163 88.2847C96.1439 84.7609 98.8905 81.2451 101.66 77.7527L102.048 78.0609L101.66 77.7527C101.98 77.3487 102.336 76.9376 102.696 76.5257C102.744 76.4709 102.792 76.416 102.84 76.3612C103.156 76.0011 103.472 75.6398 103.778 75.2718C104.486 74.4204 105.105 73.5703 105.472 72.7109L105.931 72.907L105.472 72.7109C105.814 71.9086 105.872 70.7835 105.825 69.5431C105.805 69.0113 105.767 68.4761 105.729 67.9518C105.723 67.8733 105.718 67.7951 105.712 67.7172C105.67 67.1246 105.633 66.5457 105.633 66.0321V50.5634C105.633 48.6496 105.7 46.6862 105.767 44.7199C105.803 43.6852 105.838 42.6497 105.864 41.62C105.939 38.6204 105.932 35.6466 105.613 32.7869L106.11 32.7313L105.613 32.7869C105.44 31.2417 103.595 30.4066 102.377 31.3356L102.377 31.3356C101.987 31.633 101.708 32.112 101.527 32.76C101.346 33.4073 101.274 34.1797 101.264 35.0045C101.254 35.8266 101.306 36.6759 101.361 37.4737C101.369 37.5813 101.376 37.6883 101.384 37.7944C101.432 38.4634 101.477 39.0953 101.477 39.6063V50.7782C101.477 51.2559 101.504 51.7425 101.532 52.2562C101.553 52.6429 101.576 53.045 101.588 53.4704C101.615 54.4149 101.587 55.4054 101.334 56.2872L100.854 56.1493L101.334 56.2872C101.068 57.2145 100.429 57.8952 99.8535 58.4768C99.8026 58.5282 99.7523 58.5789 99.7026 58.629C99.3184 59.0158 98.9715 59.365 98.7053 59.7437C99.6229 60.1139 100.408 60.6785 101.101 61.3966C102.621 62.9706 103.267 64.5962 103.267 66.2239C103.266 67.8344 102.632 69.3817 101.716 70.8155C100.308 73.0192 98.1443 75.0785 96.3379 76.798C95.8146 77.2961 95.3212 77.7657 94.8849 78.2021L94.5313 77.8485L94.8849 78.2021C94.648 78.4389 94.3098 78.8388 93.8907 79.3342L93.8851 79.3409C93.4715 79.8299 92.9923 80.3956 92.4966 80.9304C92.0029 81.4631 91.4787 81.9804 90.9717 82.3679C90.4868 82.7385 89.9265 83.0631 89.3751 83.0631C89.0006 83.0631 88.6582 82.9069 88.3739 82.7244C88.085 82.539 87.8083 82.2949 87.5576 82.0534C87.3895 81.8915 87.2194 81.7168 87.0615 81.5548C86.9866 81.478 86.9146 81.404 86.8468 81.3355C86.6229 81.1095 86.4417 80.9393 86.2942 80.8354L86.0821 80.6861V80.4267V80.2118V79.9524L86.2942 79.803C87.3703 79.045 88.3673 78.1024 89.3447 77.0966C89.7532 76.6762 90.1676 76.2346 90.5829 75.792C91.1389 75.1994 91.6966 74.6051 92.2442 74.0575C92.7677 73.534 93.3363 73.0025 93.9029 72.4729C94.3013 72.1006 94.6986 71.7293 95.0785 71.3623C96.0183 70.4545 96.8991 69.5304 97.6066 68.5354C98.1644 67.7508 98.3815 66.7663 98.213 65.9177C98.0487 65.0897 97.5195 64.3817 96.5301 64.0714L96.6798 63.5943ZM8.8986 61.3966C9.59176 60.6785 10.3773 60.1139 11.2949 59.7438L8.66602 56.2872C8.66602 56.2872 8.666 56.2872 8.666 56.2871C8.41298 55.4053 8.3849 54.4149 8.41215 53.4704C8.42442 53.045 8.4467 52.6428 8.46812 52.256C8.49657 51.7423 8.52352 51.2559 8.52352 50.7782V39.6063C8.52352 39.0953 8.56853 38.4634 8.61617 37.7944C8.62373 37.6883 8.63135 37.5813 8.63887 37.4737C8.69461 36.6759 8.74646 35.8266 8.73652 35.0045C8.72655 34.1797 8.65435 33.4073 8.47314 32.76C8.29173 32.112 8.01351 31.633 7.62356 31.3356C6.40529 30.4066 4.56037 31.2417 4.3876 32.7869C4.0679 35.6466 4.06129 38.6204 4.13616 41.62C4.16187 42.6497 4.19732 43.6854 4.23274 44.7201C4.30006 46.6864 4.36727 48.6496 4.36727 50.5634V66.0321C4.36727 66.5457 4.32975 67.1246 4.28781 67.7171C4.2823 67.7949 4.27672 67.873 4.27111 67.9514C4.2336 68.4758 4.1953 69.0111 4.17514 69.5431C4.12813 70.7835 4.18634 71.9086 4.52867 72.7109L4.06879 72.9071L4.52869 72.7109C4.89535 73.5703 5.51469 74.4204 6.22237 75.2718C6.52811 75.6397 6.84438 76.001 7.15957 76.361C7.20766 76.4159 7.25574 76.4708 7.30374 76.5257C7.6639 76.9376 8.02012 77.3487 8.34044 77.7527C11.1097 81.2451 13.8563 84.7607 16.584 88.2847C16.9508 88.7586 17.3567 89.2276 17.7804 89.7171C18.0435 90.021 18.3133 90.3328 18.585 90.6586C19.2751 91.4864 19.9485 92.3743 20.3969 93.3174L20.3969 93.3175C20.7327 94.0239 20.7922 94.8714 20.7835 95.6488C20.7792 96.0363 20.7571 96.4252 20.7366 96.7874L20.7355 96.8074C20.7143 97.1807 20.6954 97.5218 20.6954 97.829V106.567H32.3712L32.3712 88.161C32.3712 87.6142 32.4181 86.9674 32.4709 86.2944C32.4774 86.2117 32.484 86.1286 32.4906 86.045C32.5384 85.4408 32.588 84.8146 32.6152 84.1936C32.6782 82.751 32.6103 81.4645 32.2031 80.6503C31.9346 80.1132 31.4765 79.5968 30.9333 79.075C30.6883 78.8397 30.4343 78.6109 30.1792 78.3811L30.1026 78.3121C29.8249 78.0618 29.5463 77.8088 29.295 77.5575L23.0645 71.3271C22.5942 70.8568 22.0378 70.2098 21.4348 69.5086C21.3054 69.3581 21.1737 69.205 21.0403 69.0506C20.2764 68.1666 19.4393 67.2216 18.5626 66.3838C17.683 65.5432 16.7858 64.8326 15.9074 64.4004C15.0324 63.9699 14.2201 63.8361 13.47 64.0714C12.4806 64.3817 11.9515 65.0897 11.7871 65.9177C11.6187 66.7663 11.8358 67.7508 12.3935 68.5354C13.101 69.5304 13.9817 70.4545 14.9215 71.3623C15.3016 71.7294 15.6991 72.1009 16.0976 72.4733C16.6641 73.0027 17.2326 73.5341 17.756 74.0575C18.3037 74.6052 18.8614 75.1996 19.4175 75.7922C19.8328 76.2347 20.247 76.6763 20.6555 77.0966C21.6329 78.1024 22.6299 79.045 23.706 79.8031L23.9181 79.9524V80.2118V80.4267V80.6861L23.706 80.8354C23.5585 80.9393 23.3772 81.1095 23.1534 81.3355C23.0856 81.404 23.0136 81.4779 22.9388 81.5547C22.7809 81.7168 22.6107 81.8914 22.4426 82.0534C22.1919 82.2949 21.9151 82.539 21.6263 82.7244C21.342 82.9069 20.9995 83.0631 20.6251 83.0631C20.0736 83.0631 19.5133 82.7385 19.0284 82.3679C18.5214 81.9804 17.9973 81.4631 17.5035 80.9304C17.0078 80.3956 16.5287 79.8299 16.115 79.3409L16.1087 79.3335C15.69 78.8384 15.352 78.4388 15.1153 78.2021C14.6789 77.7657 14.1856 77.2961 13.6623 76.798C11.8559 75.0785 9.69247 73.0192 8.28461 70.8155C7.36856 69.3817 6.73414 67.8344 6.73344 66.2239C6.73275 64.5962 7.37933 62.9706 8.8986 61.3966Z" fill="white" stroke="#676767"/>
<path d="M60.8711 46.4111H63.7383V43.5439H60.8711V46.4111ZM53.5664 46.4111H56.4336V43.5439H53.5664V46.4111ZM46.2617 46.4111H49.1289V43.5439H46.2617V46.4111Z" fill="#8BDBF0" stroke="#676767"/>
<path d="M66.1474 54.1591L66.1891 54.1373L70.9491 51.6436L75.9479 59.0492C75.6642 59.0309 75.3607 59.0073 75.0411 58.9818C74.9751 58.9765 74.9086 58.9712 74.8415 58.9658C74.1832 58.9128 73.4715 58.8555 72.7659 58.8263C71.9889 58.7942 71.2028 58.7951 70.4825 58.876C69.7675 58.9564 69.0808 59.1193 68.5252 59.4355L66.1474 54.1591ZM66.1474 54.1591L66.1025 54.1728L59.9682 56.0382M66.1474 54.1591L59.9682 56.0382M59.9682 56.0382L64.3399 66.6823C64.3751 66.5915 64.4113 66.498 64.4484 66.4022C64.8078 65.4737 65.2515 64.3275 65.7479 63.257C66.1199 62.4548 66.5336 61.6661 66.9852 61.0017C67.4312 60.3454 67.9427 59.7671 68.5252 59.4355L59.9682 56.0382ZM43.8975 54.1728L43.8526 54.1591L43.8109 54.1373L39.0509 51.6436L34.0521 59.0492C34.3358 59.0309 34.6393 59.0073 34.9589 58.9818C35.0248 58.9765 35.0914 58.9712 35.1584 58.9658C35.8168 58.9128 36.5285 58.8555 37.234 58.8263C38.0111 58.7942 38.7972 58.7951 39.5175 58.876C40.2325 58.9564 40.9192 59.1193 41.4747 59.4355C42.0573 59.767 42.5688 60.3454 43.0148 61.0017C43.4663 61.6661 43.8801 62.4548 44.252 63.257C44.7485 64.3275 45.1922 65.4737 45.5516 66.4022C45.5887 66.498 45.6249 66.5915 45.6601 66.6823L50.0318 56.0382L43.8975 54.1728Z" fill="white" stroke="#676767"/>
<mask id="path-8-inside-1_546_5575" fill="white">
<path d="M57.7511 15.9678C57.8848 15.9812 60.9658 16.3358 64.5885 16.7505C71.1093 17.4998 71.1866 17.5065 71.4328 17.6871C72.073 18.1554 72.4528 19.199 72.4528 20.5035C72.4528 21.1524 72.3121 21.7545 72.0167 22.3566L71.7986 22.8115L72.0167 23.2597C72.3684 23.9822 72.4739 24.5308 72.4317 25.4205C72.4036 26.1898 72.1855 27.0261 71.9252 27.3739C71.8408 27.4943 71.8549 27.5412 72.08 27.8355C73.2828 29.4277 73.311 33.1606 72.1363 34.813C71.9815 35.0337 71.7212 35.3013 71.5665 35.4084L71.2781 35.6024L61.4723 36.6995L51.6665 37.8033L49.3944 37.5491L47.1294 37.2882V38.4522C47.1294 39.5895 47.1294 39.6096 46.9535 39.7701C46.7777 39.9441 46.5104 39.9842 46.2923 39.8705C46.2219 39.837 45.8702 39.342 45.5115 38.7667C45.1527 38.198 44.8432 37.7297 44.8151 37.7297C44.794 37.7364 44.5056 38.0843 44.175 38.5058C43.8444 38.9339 43.5208 39.3085 43.4575 39.342C43.2464 39.449 42.9791 39.4089 42.8033 39.2349C42.6274 39.0744 42.6274 39.0543 42.6274 37.9371C42.6274 36.8065 42.6274 36.7932 42.4656 36.7597C42.2898 36.7263 37.5768 36.1911 37.4361 36.1911C37.3869 36.1911 37.2673 36.1175 37.1759 36.0238C36.8382 35.7094 37.0141 35.2211 37.4924 35.1274C38.5405 34.9267 39.047 31.816 38.3647 29.8358C38.1255 29.1534 37.8723 28.8189 37.5276 28.7119C37.1829 28.6115 37 28.4108 37 28.1499C37 27.9292 37.2743 27.6281 37.4783 27.6281C37.7738 27.6281 38.1255 26.6247 38.1255 25.755C38.1255 24.8853 37.7738 23.8819 37.4783 23.8819C37.2673 23.8819 37 23.5808 37 23.3467C37 23.1125 37.2673 22.8115 37.4783 22.8115C37.7738 22.8115 38.1255 21.808 38.1255 20.9383C38.1255 20.3898 37.9637 19.6673 37.7738 19.3462C37.6894 19.2124 37.5205 19.0518 37.401 18.9983C37.0774 18.8511 36.9508 18.6036 37.0633 18.3494C37.1125 18.2357 37.2181 18.1152 37.3025 18.0684C37.3869 18.0283 41.509 17.5399 46.4611 16.9847C55.2821 15.9946 56.8789 15.8541 57.7511 15.9678ZM49.4507 17.7339C45.7577 18.142 42.6837 18.4899 42.6274 18.5099C42.5712 18.53 44.5478 18.7842 47.0239 19.0719L51.5258 19.5937L58.5249 18.8244C62.3727 18.4029 65.5803 18.035 65.6506 18.0082C65.8195 17.9413 57.6597 17.0114 56.8367 16.998C56.3795 16.9914 54.0511 17.2255 49.4507 17.7339ZM69.5125 18.6705L68.7809 18.7508L68.8301 18.9582C69.0974 20.1222 69.1326 20.9049 68.9779 21.8749C68.9286 22.1893 68.8935 22.4502 68.9005 22.4636C68.9497 22.5171 70.7997 22.2562 70.849 22.1893C71.4188 21.3999 71.4821 19.7342 70.9756 18.7976C70.8279 18.5233 70.8208 18.5166 70.5324 18.5568C70.3707 18.5768 69.9064 18.6304 69.5125 18.6705ZM60.3187 19.7007C56.5272 20.1222 53.3125 20.4834 53.1718 20.5102L52.9186 20.5436L53.0874 21.0588C53.3829 21.9351 53.3758 23.1259 53.0733 24.1227C53.0311 24.2498 53.2281 24.2364 59.0877 23.5808C63.4841 23.0858 65.1653 22.8784 65.2075 22.8115C65.3411 22.6041 65.4396 21.5538 65.3904 20.751C65.3482 19.9416 65.3482 19.9282 65.517 19.7676C65.7491 19.5536 66.0727 19.5469 66.2908 19.7609C66.4315 19.888 66.4666 20.0151 66.5088 20.5102C66.5651 21.0989 66.5229 22.1024 66.4315 22.5372L66.3822 22.7647L66.8676 22.7178C67.6202 22.6442 67.6554 22.6242 67.7398 22.3499C68.0001 21.4668 68.0071 20.1155 67.7469 19.3261C67.6062 18.9113 67.5921 18.8913 67.4092 18.9113C67.2967 18.9247 64.1101 19.2793 60.3187 19.7007ZM39.0048 19.3796C39.0329 19.4465 39.1033 19.7409 39.1595 20.0352C39.3072 20.7711 39.251 21.7411 39.0188 22.4235L38.843 22.9453L39.0681 22.9787C39.1877 22.9988 42.0577 23.3266 45.4411 23.7146L51.5961 24.417L51.7509 24.2498C52.2574 23.7079 52.3277 21.9619 51.8846 21.032L51.7157 20.6908L51.0264 20.6039C45.1105 19.9215 39.4409 19.2793 39.2228 19.2726C38.9977 19.2659 38.9626 19.286 39.0048 19.3796ZM63.5544 24.1561C59.8403 24.5709 56.7945 24.9121 56.7874 24.9188C56.7804 24.9188 56.8367 25.1663 56.9211 25.454C57.0829 26.036 57.1392 27.4007 57.0266 28.2168L56.9703 28.6383L57.3432 28.5982C57.9481 28.5313 58.0114 28.5112 58.0958 28.3172C58.3561 27.7151 58.4546 26.5377 58.3139 25.8152C58.2295 25.3871 58.3069 25.1395 58.5671 25.0258C59.0384 24.8251 59.3128 25.0526 59.4394 25.7617C59.5379 26.3036 59.5027 27.3605 59.369 27.9493C59.3198 28.1433 59.2987 28.3172 59.3198 28.3373C59.3901 28.4042 70.7927 27.0863 70.849 27.006C71.4188 26.2099 71.4821 24.5508 70.9756 23.6143C70.8279 23.3467 70.8138 23.3333 70.5676 23.3667C70.4269 23.3868 67.2685 23.7414 63.5544 24.1561ZM39.0048 24.1963C39.0329 24.2632 39.1033 24.5575 39.1595 24.8519C39.3072 25.5878 39.251 26.5778 39.0188 27.2334C38.9204 27.5077 38.85 27.7419 38.8641 27.7552C38.8782 27.7686 41.7481 28.1031 45.2442 28.5045L51.5961 29.2337L51.7509 29.0664C52.2574 28.5246 52.3277 26.7785 51.8846 25.8487L51.7157 25.5075L50.9912 25.4205C45.6733 24.7984 39.4409 24.0959 39.2228 24.0892C38.9977 24.0825 38.9626 24.1026 39.0048 24.1963ZM54.2832 25.1864C53.7697 25.2466 53.2562 25.3068 53.1367 25.3202L52.9116 25.3536L53.0874 25.8754C53.3829 26.7518 53.3758 27.9426 53.0733 28.9393L53.0311 29.0731L54.3536 28.9193C55.0781 28.839 55.6971 28.7721 55.7253 28.7654C55.7464 28.7654 55.8238 28.4777 55.8871 28.1232C56.0488 27.2736 56.0066 26.1765 55.7815 25.5342C55.5916 25.0057 55.6971 25.0325 54.2832 25.1864ZM70.1174 28.2369C69.7094 28.2904 69.5054 28.3439 69.5265 28.3908C69.7305 28.8524 70.0049 29.8291 70.1034 30.4445C70.1878 31.0199 70.2089 31.4346 70.1807 32.1438C70.1385 32.9599 70.0822 33.3345 69.8079 34.5253L69.7657 34.6993L70.3496 34.6257C70.9193 34.5521 70.9404 34.5454 71.1655 34.2644C72.1433 33.0402 72.0941 29.5214 71.0882 28.3774C70.8631 28.1299 70.9264 28.1433 70.1174 28.2369ZM67.5851 28.5313L67.2615 28.5714L67.4303 29.0531C68.0212 30.6653 68.1056 32.5719 67.6625 34.3179C67.5921 34.6257 67.5429 34.8866 67.5569 34.9066C67.578 34.92 67.782 34.9133 68.0212 34.8866C68.4362 34.8397 68.4644 34.8264 68.5628 34.5922C68.6262 34.4584 68.7528 34.0637 68.8512 33.7159C69.013 33.1405 69.0341 32.9532 69.0341 31.7758C69.0412 30.3241 68.9568 29.8558 68.4995 28.8925C68.2955 28.4644 68.2674 28.4242 68.0986 28.4577C68.0001 28.4777 67.768 28.5045 67.5851 28.5313ZM62.2038 29.12C60.1428 29.3541 58.4405 29.5615 58.4194 29.5816C58.3983 29.6016 58.4616 29.8826 58.5601 30.2104C59.0525 31.8293 59.0736 33.8095 58.6023 35.4284C58.5249 35.6827 58.4757 35.9034 58.4968 35.9168C58.5179 35.9369 60.2624 35.7562 62.3797 35.5154L66.2275 35.0873L66.4244 34.532C66.8605 33.2877 66.945 31.3276 66.6143 30.1368C66.4666 29.6083 66.0727 28.6985 65.9883 28.6985C65.9672 28.6985 64.2579 28.8925 62.2038 29.12ZM39.3354 29.2471C39.6871 30.1301 39.7715 30.6787 39.7715 31.9765C39.7715 33.3145 39.6941 33.7426 39.2861 34.6658C39.1806 34.9 39.0821 35.1341 39.0681 35.1876C39.0399 35.2746 39.3213 35.3214 40.8267 35.4887L42.6274 35.696V34.1039V32.5117L42.4305 32.4782C42.1069 32.4113 41.8959 32.2842 41.8255 32.1036C41.7341 31.8427 41.8255 31.5885 42.0647 31.4748C42.2616 31.3744 42.4586 31.3945 44.8925 31.6755C47.2349 31.9431 47.5233 31.9899 47.671 32.1237C47.8328 32.2642 47.882 32.5184 47.7906 32.7458C47.7343 32.8796 47.3545 33.0669 47.2279 33.0201C47.1434 32.9867 47.1294 33.2342 47.1294 34.5855V36.1911L47.2841 36.2178C47.3756 36.2379 48.4096 36.365 49.5914 36.4921L51.7368 36.7396L51.9619 36.4854C52.2081 36.2178 52.4192 35.7496 52.602 35.0605C52.7568 34.445 52.7568 32.5853 52.602 31.9698C52.4121 31.2741 52.2081 30.8125 51.9619 30.5516L51.7368 30.3108L45.6522 29.615C42.3039 29.227 39.4831 28.9126 39.3776 28.9059L39.1947 28.8992L39.3354 29.2471ZM56.1473 29.8023C56.1403 29.809 56.2106 30.0833 56.3091 30.4111C56.8015 32.0233 56.8297 33.8898 56.3724 35.5154C56.281 35.8633 56.2177 36.1576 56.2317 36.1777C56.2528 36.1911 56.4568 36.1844 56.689 36.1576C57.1181 36.1108 57.1181 36.1108 57.2658 35.8031C57.3432 35.6291 57.4979 35.201 57.5964 34.8531C57.7652 34.2644 57.7793 34.1172 57.7793 32.8462C57.7722 31.3878 57.723 31.0868 57.3291 30.0833L57.1743 29.6886L56.6679 29.7354C56.3935 29.7622 56.1614 29.7889 56.1473 29.8023ZM53.8612 30.0498C53.2281 30.1167 53.1085 30.1502 53.1367 30.2372C53.1507 30.2907 53.2492 30.5248 53.3547 30.759C53.7557 31.6688 53.833 32.117 53.8401 33.4148C53.8471 34.7126 53.7697 35.201 53.4391 36.084L53.2633 36.539L53.5868 36.4988C53.7697 36.4787 54.1285 36.4453 54.3888 36.4185L54.8671 36.3717L55.0781 35.8499C55.4861 34.8464 55.5353 34.5454 55.5283 33.0803C55.5283 31.8561 55.5142 31.6888 55.3454 31.1068C55.0851 30.2037 54.9656 29.9696 54.7827 29.9696C54.6983 29.9696 54.2832 30.003 53.8612 30.0498ZM43.7529 34.92C43.7529 36.171 43.767 37.1946 43.7811 37.1946C43.7951 37.1946 43.971 36.9805 44.175 36.7263C44.7588 35.977 45.0683 35.9971 45.5889 36.8132C45.7647 37.1009 45.9335 37.3484 45.9617 37.3752C45.9828 37.3952 46.0039 36.3918 46.0039 35.1408V32.8663L45.1035 32.7659C44.6111 32.7124 44.1046 32.6589 43.978 32.6522L43.7529 32.6455V34.92Z"/>
</mask>
<path d="M57.7511 15.9678C57.8848 15.9812 60.9658 16.3358 64.5885 16.7505C71.1093 17.4998 71.1866 17.5065 71.4328 17.6871C72.073 18.1554 72.4528 19.199 72.4528 20.5035C72.4528 21.1524 72.3121 21.7545 72.0167 22.3566L71.7986 22.8115L72.0167 23.2597C72.3684 23.9822 72.4739 24.5308 72.4317 25.4205C72.4036 26.1898 72.1855 27.0261 71.9252 27.3739C71.8408 27.4943 71.8549 27.5412 72.08 27.8355C73.2828 29.4277 73.311 33.1606 72.1363 34.813C71.9815 35.0337 71.7212 35.3013 71.5665 35.4084L71.2781 35.6024L61.4723 36.6995L51.6665 37.8033L49.3944 37.5491L47.1294 37.2882V38.4522C47.1294 39.5895 47.1294 39.6096 46.9535 39.7701C46.7777 39.9441 46.5104 39.9842 46.2923 39.8705C46.2219 39.837 45.8702 39.342 45.5115 38.7667C45.1527 38.198 44.8432 37.7297 44.8151 37.7297C44.794 37.7364 44.5056 38.0843 44.175 38.5058C43.8444 38.9339 43.5208 39.3085 43.4575 39.342C43.2464 39.449 42.9791 39.4089 42.8033 39.2349C42.6274 39.0744 42.6274 39.0543 42.6274 37.9371C42.6274 36.8065 42.6274 36.7932 42.4656 36.7597C42.2898 36.7263 37.5768 36.1911 37.4361 36.1911C37.3869 36.1911 37.2673 36.1175 37.1759 36.0238C36.8382 35.7094 37.0141 35.2211 37.4924 35.1274C38.5405 34.9267 39.047 31.816 38.3647 29.8358C38.1255 29.1534 37.8723 28.8189 37.5276 28.7119C37.1829 28.6115 37 28.4108 37 28.1499C37 27.9292 37.2743 27.6281 37.4783 27.6281C37.7738 27.6281 38.1255 26.6247 38.1255 25.755C38.1255 24.8853 37.7738 23.8819 37.4783 23.8819C37.2673 23.8819 37 23.5808 37 23.3467C37 23.1125 37.2673 22.8115 37.4783 22.8115C37.7738 22.8115 38.1255 21.808 38.1255 20.9383C38.1255 20.3898 37.9637 19.6673 37.7738 19.3462C37.6894 19.2124 37.5205 19.0518 37.401 18.9983C37.0774 18.8511 36.9508 18.6036 37.0633 18.3494C37.1125 18.2357 37.2181 18.1152 37.3025 18.0684C37.3869 18.0283 41.509 17.5399 46.4611 16.9847C55.2821 15.9946 56.8789 15.8541 57.7511 15.9678ZM49.4507 17.7339C45.7577 18.142 42.6837 18.4899 42.6274 18.5099C42.5712 18.53 44.5478 18.7842 47.0239 19.0719L51.5258 19.5937L58.5249 18.8244C62.3727 18.4029 65.5803 18.035 65.6506 18.0082C65.8195 17.9413 57.6597 17.0114 56.8367 16.998C56.3795 16.9914 54.0511 17.2255 49.4507 17.7339ZM69.5125 18.6705L68.7809 18.7508L68.8301 18.9582C69.0974 20.1222 69.1326 20.9049 68.9779 21.8749C68.9286 22.1893 68.8935 22.4502 68.9005 22.4636C68.9497 22.5171 70.7997 22.2562 70.849 22.1893C71.4188 21.3999 71.4821 19.7342 70.9756 18.7976C70.8279 18.5233 70.8208 18.5166 70.5324 18.5568C70.3707 18.5768 69.9064 18.6304 69.5125 18.6705ZM60.3187 19.7007C56.5272 20.1222 53.3125 20.4834 53.1718 20.5102L52.9186 20.5436L53.0874 21.0588C53.3829 21.9351 53.3758 23.1259 53.0733 24.1227C53.0311 24.2498 53.2281 24.2364 59.0877 23.5808C63.4841 23.0858 65.1653 22.8784 65.2075 22.8115C65.3411 22.6041 65.4396 21.5538 65.3904 20.751C65.3482 19.9416 65.3482 19.9282 65.517 19.7676C65.7491 19.5536 66.0727 19.5469 66.2908 19.7609C66.4315 19.888 66.4666 20.0151 66.5088 20.5102C66.5651 21.0989 66.5229 22.1024 66.4315 22.5372L66.3822 22.7647L66.8676 22.7178C67.6202 22.6442 67.6554 22.6242 67.7398 22.3499C68.0001 21.4668 68.0071 20.1155 67.7469 19.3261C67.6062 18.9113 67.5921 18.8913 67.4092 18.9113C67.2967 18.9247 64.1101 19.2793 60.3187 19.7007ZM39.0048 19.3796C39.0329 19.4465 39.1033 19.7409 39.1595 20.0352C39.3072 20.7711 39.251 21.7411 39.0188 22.4235L38.843 22.9453L39.0681 22.9787C39.1877 22.9988 42.0577 23.3266 45.4411 23.7146L51.5961 24.417L51.7509 24.2498C52.2574 23.7079 52.3277 21.9619 51.8846 21.032L51.7157 20.6908L51.0264 20.6039C45.1105 19.9215 39.4409 19.2793 39.2228 19.2726C38.9977 19.2659 38.9626 19.286 39.0048 19.3796ZM63.5544 24.1561C59.8403 24.5709 56.7945 24.9121 56.7874 24.9188C56.7804 24.9188 56.8367 25.1663 56.9211 25.454C57.0829 26.036 57.1392 27.4007 57.0266 28.2168L56.9703 28.6383L57.3432 28.5982C57.9481 28.5313 58.0114 28.5112 58.0958 28.3172C58.3561 27.7151 58.4546 26.5377 58.3139 25.8152C58.2295 25.3871 58.3069 25.1395 58.5671 25.0258C59.0384 24.8251 59.3128 25.0526 59.4394 25.7617C59.5379 26.3036 59.5027 27.3605 59.369 27.9493C59.3198 28.1433 59.2987 28.3172 59.3198 28.3373C59.3901 28.4042 70.7927 27.0863 70.849 27.006C71.4188 26.2099 71.4821 24.5508 70.9756 23.6143C70.8279 23.3467 70.8138 23.3333 70.5676 23.3667C70.4269 23.3868 67.2685 23.7414 63.5544 24.1561ZM39.0048 24.1963C39.0329 24.2632 39.1033 24.5575 39.1595 24.8519C39.3072 25.5878 39.251 26.5778 39.0188 27.2334C38.9204 27.5077 38.85 27.7419 38.8641 27.7552C38.8782 27.7686 41.7481 28.1031 45.2442 28.5045L51.5961 29.2337L51.7509 29.0664C52.2574 28.5246 52.3277 26.7785 51.8846 25.8487L51.7157 25.5075L50.9912 25.4205C45.6733 24.7984 39.4409 24.0959 39.2228 24.0892C38.9977 24.0825 38.9626 24.1026 39.0048 24.1963ZM54.2832 25.1864C53.7697 25.2466 53.2562 25.3068 53.1367 25.3202L52.9116 25.3536L53.0874 25.8754C53.3829 26.7518 53.3758 27.9426 53.0733 28.9393L53.0311 29.0731L54.3536 28.9193C55.0781 28.839 55.6971 28.7721 55.7253 28.7654C55.7464 28.7654 55.8238 28.4777 55.8871 28.1232C56.0488 27.2736 56.0066 26.1765 55.7815 25.5342C55.5916 25.0057 55.6971 25.0325 54.2832 25.1864ZM70.1174 28.2369C69.7094 28.2904 69.5054 28.3439 69.5265 28.3908C69.7305 28.8524 70.0049 29.8291 70.1034 30.4445C70.1878 31.0199 70.2089 31.4346 70.1807 32.1438C70.1385 32.9599 70.0822 33.3345 69.8079 34.5253L69.7657 34.6993L70.3496 34.6257C70.9193 34.5521 70.9404 34.5454 71.1655 34.2644C72.1433 33.0402 72.0941 29.5214 71.0882 28.3774C70.8631 28.1299 70.9264 28.1433 70.1174 28.2369ZM67.5851 28.5313L67.2615 28.5714L67.4303 29.0531C68.0212 30.6653 68.1056 32.5719 67.6625 34.3179C67.5921 34.6257 67.5429 34.8866 67.5569 34.9066C67.578 34.92 67.782 34.9133 68.0212 34.8866C68.4362 34.8397 68.4644 34.8264 68.5628 34.5922C68.6262 34.4584 68.7528 34.0637 68.8512 33.7159C69.013 33.1405 69.0341 32.9532 69.0341 31.7758C69.0412 30.3241 68.9568 29.8558 68.4995 28.8925C68.2955 28.4644 68.2674 28.4242 68.0986 28.4577C68.0001 28.4777 67.768 28.5045 67.5851 28.5313ZM62.2038 29.12C60.1428 29.3541 58.4405 29.5615 58.4194 29.5816C58.3983 29.6016 58.4616 29.8826 58.5601 30.2104C59.0525 31.8293 59.0736 33.8095 58.6023 35.4284C58.5249 35.6827 58.4757 35.9034 58.4968 35.9168C58.5179 35.9369 60.2624 35.7562 62.3797 35.5154L66.2275 35.0873L66.4244 34.532C66.8605 33.2877 66.945 31.3276 66.6143 30.1368C66.4666 29.6083 66.0727 28.6985 65.9883 28.6985C65.9672 28.6985 64.2579 28.8925 62.2038 29.12ZM39.3354 29.2471C39.6871 30.1301 39.7715 30.6787 39.7715 31.9765C39.7715 33.3145 39.6941 33.7426 39.2861 34.6658C39.1806 34.9 39.0821 35.1341 39.0681 35.1876C39.0399 35.2746 39.3213 35.3214 40.8267 35.4887L42.6274 35.696V34.1039V32.5117L42.4305 32.4782C42.1069 32.4113 41.8959 32.2842 41.8255 32.1036C41.7341 31.8427 41.8255 31.5885 42.0647 31.4748C42.2616 31.3744 42.4586 31.3945 44.8925 31.6755C47.2349 31.9431 47.5233 31.9899 47.671 32.1237C47.8328 32.2642 47.882 32.5184 47.7906 32.7458C47.7343 32.8796 47.3545 33.0669 47.2279 33.0201C47.1434 32.9867 47.1294 33.2342 47.1294 34.5855V36.1911L47.2841 36.2178C47.3756 36.2379 48.4096 36.365 49.5914 36.4921L51.7368 36.7396L51.9619 36.4854C52.2081 36.2178 52.4192 35.7496 52.602 35.0605C52.7568 34.445 52.7568 32.5853 52.602 31.9698C52.4121 31.2741 52.2081 30.8125 51.9619 30.5516L51.7368 30.3108L45.6522 29.615C42.3039 29.227 39.4831 28.9126 39.3776 28.9059L39.1947 28.8992L39.3354 29.2471ZM56.1473 29.8023C56.1403 29.809 56.2106 30.0833 56.3091 30.4111C56.8015 32.0233 56.8297 33.8898 56.3724 35.5154C56.281 35.8633 56.2177 36.1576 56.2317 36.1777C56.2528 36.1911 56.4568 36.1844 56.689 36.1576C57.1181 36.1108 57.1181 36.1108 57.2658 35.8031C57.3432 35.6291 57.4979 35.201 57.5964 34.8531C57.7652 34.2644 57.7793 34.1172 57.7793 32.8462C57.7722 31.3878 57.723 31.0868 57.3291 30.0833L57.1743 29.6886L56.6679 29.7354C56.3935 29.7622 56.1614 29.7889 56.1473 29.8023ZM53.8612 30.0498C53.2281 30.1167 53.1085 30.1502 53.1367 30.2372C53.1507 30.2907 53.2492 30.5248 53.3547 30.759C53.7557 31.6688 53.833 32.117 53.8401 33.4148C53.8471 34.7126 53.7697 35.201 53.4391 36.084L53.2633 36.539L53.5868 36.4988C53.7697 36.4787 54.1285 36.4453 54.3888 36.4185L54.8671 36.3717L55.0781 35.8499C55.4861 34.8464 55.5353 34.5454 55.5283 33.0803C55.5283 31.8561 55.5142 31.6888 55.3454 31.1068C55.0851 30.2037 54.9656 29.9696 54.7827 29.9696C54.6983 29.9696 54.2832 30.003 53.8612 30.0498ZM43.7529 34.92C43.7529 36.171 43.767 37.1946 43.7811 37.1946C43.7951 37.1946 43.971 36.9805 44.175 36.7263C44.7588 35.977 45.0683 35.9971 45.5889 36.8132C45.7647 37.1009 45.9335 37.3484 45.9617 37.3752C45.9828 37.3952 46.0039 36.3918 46.0039 35.1408V32.8663L45.1035 32.7659C44.6111 32.7124 44.1046 32.6589 43.978 32.6522L43.7529 32.6455V34.92Z" fill="#8BDBF0" stroke="#676767" stroke-width="0.6" mask="url(#path-8-inside-1_546_5575)"/>
</g>
<defs>
<clipPath id="clip0_546_5575">
<rect width="110" height="110" fill="white" transform="matrix(-1 0 0 1 110 0.93457)"/>
</clipPath>
</defs>
</svg>
